<svg xmlns="http://www.w3.org/2000/svg" viewBox="0 0 570 285"><g fill="none" stroke-width="2"><path stroke="#828b9e" d="m264.43 43.04-5.49 20.72a1 .98-12.9 0 1-.34.53l-2.73 2.19a.96.96 0 0 0-.33.51l-3.24 11.49a1 1 0 0 0 .96 1.27h32.1a1 .99 7.6 0 0 .96-.73l2.48-8.98q.55-1.99 1.77-.33l7.09 9.63a1.01 1-18 0 0 .81.41h68.71a.99.98 25.2 0 0 .62-.22l14.5-11.6a1.04 1-13.7 0 0 .35-.55l1.74-7.2q1.28-5.35 1.57.14l.98 18.48a1 1 0 0 0 1 .95h32.5a1.01 1 15 0 0 .87-.5q14.74-25.24 29.41-50.55 1.43-2.46 4.41-4.36a1.01.98-9.3 0 0 .43-.58l3.07-11.53a1.01 1-82.6 0 0-.97-1.26l-28.88.05a.99.99 0 0 0-.85.48l-3.97 6.62q-1.31 2.18-1.49-.36l-.48-6.99q-.24-3.45-1.88-.4l-4.91 9.11a.34.33 24.8 0 1-.42.15c-.26-.11-.5-7.08-.55-7.71a1.01 1 87.2 0 0-1-.91L344.3 11a1 .99-63.7 0 0-.61.21l-11.53 9.03a1.01 1.01 0 0 1-1.43-.2l-6.34-8.64a1.02 1-18 0 0-.81-.4H134.45q-3.24 0-.57 1.82l18.39 12.57a1 1 0 0 1 .4 1.08l-10.18 38.86a1.03.99-56.7 0 0 .16.85l9.87 13.41a1 .98 71.6 0 0 .8.41h38.51a1.06 1.01-62.3 0 0 .62-.21l14.51-11.47a1 .98-12.9 0 0 .34-.53l6.86-25.56a1 .99-82.1 0 1 .97-.74l5.1.02a1.01 1-64.5 0 0 .64-.23l2-1.67q1.93-1.61 1.29.82L218 63.72a1.02.99-13.4 0 1-.31.49l-2.85 2.5a1.05 1.01-14.1 0 0-.3.48l-3.22 11.29a1 1 0 0 0 .96 1.27h34.68a1 1 0 0 0 .97-.77c.54-2.21 3.54-10.1 1.12-11.4a1 .99 22 0 1-.49-1.14q3.51-12.94 7.02-25.43.95-3.39 4.01-1.74a.99.97-89.3 0 1 .42.44q1.13 2.28 3.36 2.07a1.01 1-85.1 0 1 1.06 1.26" vector-effect="non-scaling-stroke"/><path stroke="#828b9e" d="M376.03 77.38q-1.5 1.69-.33 2.22a.8.8 0 0 0 1.04-.38l1.75-3.55a1 1 0 0 0-.86-1.44q-1.7-.06-1.36 2.34a1 .99-28.7 0 1-.24.81M381.58 75.51q-.07-.67-.65-.9a.8.8 0 0 0-1.01.39l-1.58 3.15a1 1 0 0 0 .91 1.45l3-.05a1.02 1.02 0 0 0 .9-.61c.3-.69 2.65-5.44.13-4.28a1.06 1.05-2.4 0 0-.52.56q-.1.26-.22.49-.8 1.43-.96-.2" vector-effect="non-scaling-stroke"/><path stroke="#80b49c" d="M242.21 266q-24.91.09-49.65 2.86-7.25.8 0 1.59 13.24 1.43 27.25 1.94 46.09 1.68 92.11-1.17 17.39-1.07 28.08-2.45.86-.12.41-.6a.56.5 69.1 0 0-.33-.17c-26.22-2.6-52.96-2.54-79.29-2.5" vector-effect="non-scaling-stroke"/><path stroke="#828b9e" d="M260.79 265.5c-2.83-4.9-7.67-8.92-9.72-13.73q-2.3-5.41-2.38-11.12-.05-3.07 1.8-.61l4.6 6.12a.98.96-19.5 0 0 .84.39q8.48-.36 16.91.66a1 .98 25.3 0 0 .83-.29q9.32-9.47 18.95-18.64c3.64-3.46 8.38-5.57 12.11-9.6a.99.98 32.6 0 1 1.12-.24c3.01 1.28 4.98 2.14 8.42 1.61q10.65-1.63 21.38-3.05 1.92-.25 1.02 1.46l-3.24 6.13a1.01.99 8.8 0 1-.73.52l-6.8 1.01a.99.99 0 0 0-.77.59l-.89 2.03a1 1 0 0 1-.99.6l-7.97-.59a1.02.98 25.8 0 0-.73.24q-5.31 4.58-6.9 11.37a1.01 1 0 0 0 1.21 1.2q12.07-2.89 24.35-4.52a1.02.98-72.7 0 0 .62-.34c7.97-9.12 14.59-16.86 25.69-22.44a1.03 1.01 85.6 0 0 .49-.58l2.55-7.53a1.01 1-65.8 0 0-.45-1.19q-7.77-4.47-16.23-7.39a1 1 0 0 1-.52-1.47q.62-1.02 1.01-2.15c1.12-3.21-2.7-12.48-3.97-15.83a1.02 1.01 56.4 0 1 .2-1.03q5.56-6.06 12.15-10.95 1.24-.93-.23-1.4-8.3-2.69-15.66-7.38a.22.18 29.3 0 1-.09-.24q.05-.12.21-.06c21.48 7.92 45.86 9.2 68.33 5.64 3.6-.58 6.61 1.11 10.01-.37q2.26-.99 4.2-2.65a1 1 0 0 0-.14-1.62q-2.45-1.46 1.35-.82 1.97.33 3.66-.7a.97.96-11.6 0 0 .47-.71c.41-2.99 2.19-10.09-1.85-11.04-7.8-1.84-17.81-4.12-21.69-11.67a1.03 1.01-.6 0 0-.49-.47l-9.13-3.92a.94.91 84 0 1-.43-.36q-3.51-5.19-8.37-9.09a1 1 0 0 0-1.53.35l-1.98 4.28a1.01 1-67.5 0 1-1.25.52q-11.94-4.33-24.67-3.6-1.92.11-.49 1.39 1.53 1.36-.49 1.36-8.52-.02-17.09.31a1 1 0 0 0-.81 1.52l1.11 1.82q.93 1.52-.85 1.52h-16.9q-1.76 0-.86-1.51 2.01-3.39 4.17-6.68.78-1.2.77-2.42-.01-1.01-.17-2.01-.28-1.7 1.2-.81 2.93 1.77 3.53-2.05.55-3.53 3.51-3.18a.99.99 0 0 0 1.11-.95q.11-2.68 2.52-4.08a1.03 1.02-49.6 0 1 .85-.07q5.62 2.05 11.49 3.16 1.98.38 3.96.24 2.53-.18.35-1.48-7.52-4.51-14.38-9.96a1.02 1 22.7 0 1-.38-.9l.73-6.19a1.01 1.01 0 0 0-.32-.86q-6.09-5.53-14.4-6.06a1.02 1.01 25.1 0 0-.73.26l-3.54 3.19a1.02 1 32.6 0 1-.99.21q-8.21-2.77-16.88-3.4-3.62-.26-1.31 2.57 3.84 4.7 10.09 8.98c.49.33 1.56 1.59.52 1.87a.81.8-33 0 1-.72-.15q-7.5-6.05-17.16-5.72-2.32.09-.44 1.45 1.97 1.43 3.88 2.94.2.16.17.46a.33.32-81.6 0 1-.39.3c-12.38-2.65-18.65-1.46-31.63 2.07a1.03 1.02 51.2 0 1-.73-.08l-1.82-.96a1.01.98 42.8 0 0-.97.02l-12.2 7.08q-.19.11-.4.13l-3.14.31a1.01.99-26.6 0 1-.75-.24q-5.65-4.98-13.18-6.1a1 .98-63.5 0 0-.87.3q-3.15 3.32 3.26 2.14a.98.97-32.8 0 1 .75.16q1.89 1.3 1.04 1.4c-14.34 1.62-22.91 25.58-9.18 32.55 6.36 3.23 12.72-.05 17.8-4.35q6.02-5.08 6.77-13.57.01-.2.11-.39l2.4-4.38a1 .99-79.5 0 1 .73-.51l14.76-2.29a1 .98 20.8 0 0 .48-.21c.69-.55 1.23-.95 2.19-.95q3.36.02 6.51-.14 4.04-.21.39 1.52-10.86 5.12-20.74 11.86-1.79 1.22-2.52 3.07-2.11 5.4-2.03 11.21a.99.99 0 0 1-.98 1.01l-9.78.14q-3.4.05-.14 1.01.41.11.81.24 11.21 3.54-.44 1.94-26.85-3.68-53.57.83-7.77 1.32.11 1.59 10.91.38 21.76 1.81a.07.05 2.5 0 1 .05.04q.02.05.02.1a.28.02-6.3 0 1-.27.05l-14.81 1.56a.25.23-69.2 0 0-.14.07q-.33.38.3.46 4.59.58 8.95 1.22 2.18.32.3 1.48-5.46 3.32-9.38 8.41a1.01.97 8 0 1-.47.34c-6.76 2.31-10.76 1.17-17.93-1.67q-15.15-5.99-31.81-1.68c-8.38 2.17-13.67 4.32-20.78 4.29a.44.4 20.8 0 0-.3.12c-.34.36.08.87.43 1q9 3.39 18.62 2.49.3-.03.59 0 2.75.26.27.66-16.5 2.62-30.9-5.07-2.33-1.24-1.41 1.23 2.43 6.54 7.85 10.28c15.85 10.95 40.84-4.09 58.14-5.01q5.53-.3 12.11 2.17a.99.99 0 0 1 .65.97l-.34 8.18a1 1 0 0 1-.97.96q-13.23.45-26.3 2.57a.32.32 0 0 0-.26.22q-.12.39.43.39 14.11.05 28.06 2.19a.97.97 0 0 1 .78.63q3.88 10.32 14.06 14.67a1 1 0 0 1 .61.89q.43 15.45-11.35 23.64-1.86 1.29-4.38 1.5-6.45.55-12.94.75-8.25.25-.1 1.59 6.99 1.15 14.08 1.59a1.02 1 87.1 0 1 .93.85l.3 1.94a1 .99-89.7 0 0 .81.83q12.06 2.17 20.5 10.93a1.01.97 70.5 0 0 .6.3c4.81.6 5.45 6.3 5.81 10.28a1 .99 90 0 0 .89.9q7.41.77 13.6-3.16a1 .99 56.2 0 0 .28-1.42q-9.64-13.6-24.91-20.24-2.16-.94.01-1.84 12.31-5.12 17.89-17.15.98-2.13 1.5.16 1.03 4.53 2.21 9.07 1.57 6.07.53 12.31a1.01.99 25.3 0 0 .34.92c6.56 5.66 6.91 14.64 7.08 22.67a1.01 1 21.2 0 0 .32.71l2.68 2.52a1.01 1 29.3 0 1 .28.98l-1.83 7.04" vector-effect="non-scaling-stroke"/><path stroke="#02403b" d="M260.79 265.5q-.57.81-.14 1.5a1.01 1 67.4 0 1-.61 1.5q-8.34 2.03-16.63-.17a.99.94 79.4 0 1-.57-.41q-.58-.86-.63-1.92" vector-effect="non-scaling-stroke"/><path stroke="#828b9e" d="M263.25 113.96q2.55-1.88-.25-1" vector-effect="non-scaling-stroke"/><path stroke="#823b26" d="m157.41 73.16 32.17.08a1.03.99 25.2 0 0 .62-.21l10.89-8.49a1.01.98 79.6 0 0 .35-.52q5.52-19.67 10.6-39.47c.78-3.03 3.75-3.09 4.45-6.78" vector-effect="non-scaling-stroke"/><path stroke="#825f29" d="M216.49 17.77q-5.35-.39-20.24-.55-4.3-.04-3.34 3.54.06.22.2.39l1 1.16a1.02 1.02 0 0 1 .21.91l-9.46 35.37a1 .99-82.4 0 1-.96.74l-14.9.13" vector-effect="non-scaling-stroke"/><path stroke="#823b26" d="m169 59.46 9.49-36.49a1.05 1.03-6.4 0 1 .52-.64q2.5-1.25 3.31-3.63a1 1 0 0 0-.87-1.32q-.88-.07-1.7.16" vector-effect="non-scaling-stroke"/><path stroke="#825f29" d="m179.75 17.54-24.4-.01q-2.52-.01-.46 1.45l4.97 3.51a1 .99 25.1 0 1 .39 1.07l-10.71 40.19a1.02.99 34.5 0 0 .17.85l6.1 8.27a.99.99 0 0 0 .96.39l.64-.1" vector-effect="non-scaling-stroke"/><path stroke="#ff8313" d="M179.75 17.54c.44.72.32 1.24-.48 1.61q-4.71 2.18-9.23 4.78a1.04 1.01 82.7 0 0-.46.61q-4.24 15.62-8.48 31.6c-.85 3.19-.28 5.09 2.23 7.01a1 1 0 0 0 1.24-.02l4.43-3.67M216.49 17.77q-6.35 2.86-11.51 6.8a1.03 1-11.9 0 0-.34.5q-5.09 16.14-9.94 32.36c-1.21 4.04-4.01 6.3-7.19 8.69a1.01.98 24.7 0 1-.57.2c-4.84.15-20.34-.98-23.75 1.19q-3.44 2.2-5.78 5.65" vector-effect="non-scaling-stroke"/><path stroke="#823b26" d="M216.21 32c-2.57 4.13 4.11.76 5.29-.26a1.04.99-64.2 0 1 .66-.25l11.05.01" vector-effect="non-scaling-stroke"/><path stroke="#825f29" d="M233.21 31.5q-4.44 17.47-9.33 34.83c-.3 1.09-6.34 6.65-3.24 6.76" vector-effect="non-scaling-stroke"/><path stroke="#823b26" d="m220.64 73.09 21.36.14a1 .99-79.7 0 0 .95-.66l.48-1.34a1.01 1.01 0 0 0-.16-.97l-1.5-1.87a.99.98-57.4 0 1-.19-.88l9.47-35.27a1 .99-82.4 0 1 .96-.74h10.18a1.02.99-22.5 0 1 .7.28l2.85 2.78a1 1 0 0 0 1.64-.39q2.42-7.16 3.69-15.15" vector-effect="non-scaling-stroke"/><path stroke="#825f29" d="M271.07 19.02q.22-.19.32-.44a.8.8 0 0 0-.74-1.1l-49.82.03a.99.98 7.1 0 0-.96.74L216.21 32" vector-effect="non-scaling-stroke"/><path stroke="#ff8313" d="m271.07 19.02-8.87 5.09q-.23.13-.5.13h-36.72a1.05 1.01-65.7 0 0-.7.28q-3.46 3.38-6.3 7.23-.72.98-1.77.25" vector-effect="non-scaling-stroke"/><path stroke="#ff8313" d="M220.64 73.09q6.16-4.13 12.59-6.72a1.01 1.01 0 0 0 .59-.67l10.25-38.84q.64-2.41-1.49-1.11l-9.37 5.75" vector-effect="non-scaling-stroke"/><path stroke="#823b26" d="m332.18 73.62 32.49-.14a1.04.97-62.4 0 0 .62-.22l11.24-8.97a1 .94-13.2 0 0 .35-.53l5.87-22.94" vector-effect="non-scaling-stroke"/><path stroke="#825f29" d="M382.75 40.82q-12.35-.68-24.13-.16a1 1 0 0 0-.91.7l-1.74 5.69" vector-effect="non-scaling-stroke"/><path stroke="#823b26" d="m355.97 47.05-1.42 5.92a1 1 0 0 0 .95 1.24l5.5.08" vector-effect="non-scaling-stroke"/><path stroke="#825f29" d="m361 54.29-.95 4.26a1.02 1.01-83.8 0 1-.97.79l-15.08.12" vector-effect="non-scaling-stroke"/><path stroke="#823b26" d="m344 59.46 7.25-27.06a.99.98 7.1 0 1 .96-.74l15.04-.12" vector-effect="non-scaling-stroke"/><path stroke="#825f29" d="m367.25 31.54-.48 2.73a1 .99 5.1 0 0 .98 1.17l8.75.02" vector-effect="non-scaling-stroke"/><path stroke="#823b26" d="m376.5 35.46 6.96-.01a.99.99 0 0 0 .95-.71l2.28-7.5" vector-effect="non-scaling-stroke"/><path stroke="#825f29" d="m386.69 27.24-6.7-9.63a1.02 1-17.2 0 0-.83-.43l-32.46.3a1.01.99 24 0 0-.6.22l-11.37 8.87a1.03.96 80.4 0 0-.35.53l-9.79 36.56a1.04 1.03-53.3 0 0 .11.79q3.25 5.21 7.48 9.17" vector-effect="non-scaling-stroke"/><path stroke="#ff8313" d="m386.69 27.24-9.73 5.5a1.02.99 75.3 0 0-.51.9l.05 1.82M367.25 31.54l4.95-5.52q1.45-1.62-.73-1.67-10.04-.21-20.09-.08c-3.73.05-7.49 3.37-8.46 6.92q-3.35 12.3-6.78 24.6c-.95 3.39-.64 5.47 2.16 7.51a1.01 1.01 0 0 0 1.24-.05l4.46-3.79M361 54.29l10.22-6.12q1.71-1.02 1.19.89-1.3 4.78-2.93 9.73c-1.09 3.34-4.69 5.49-7.46 7.36a1.02.97 26.8 0 1-.56.17q-9.64-.04-19.34.12-2.33.04-3.97 1.16-3.49 2.4-5.97 6.02M382.75 40.82l-9.14 5.75a.95.92 27.6 0 1-.51.15l-17.13.33" vector-effect="non-scaling-stroke"/><path stroke="#823b26" d="m394.86 73.36 21.45.06a1.01 1 15 0 0 .87-.5q14.15-24.51 28.5-48.89c1.15-1.96 3.35-2.84 3.88-5.63a.8.8 0 0 0-.85-.94q-.29.02-.59.19" vector-effect="non-scaling-stroke"/><path stroke="#825f29" d="m448.12 17.65-15.75-.41a1 .99-73.8 0 0-.89.49l-2.52 4.22q-.89 1.5.85 1.51l8.94.08" vector-effect="non-scaling-stroke"/><path stroke="#823b26" d="M438.75 23.54q-.76 1.15-1.9 1.77" vector-effect="non-scaling-stroke"/><path stroke="#825f29" d="m436.85 25.31-12.52 7.44a1.01 1-17.8 0 0-.49.94l.95 11.64" vector-effect="non-scaling-stroke"/><path stroke="#823b26" d="M424.79 45.33q.59 1.97-.75 2.92" vector-effect="non-scaling-stroke"/><path stroke="#825f29" d="M424.04 48.25q-2.3-3.3-5.66-5.46a1.01 1-57.7 0 0-1.4.32L410 54.54" vector-effect="non-scaling-stroke"/><path stroke="#823b26" d="m410 54.54-.68-10.67a1 1 0 0 0-1.55-.77l-7.19 4.75" vector-effect="non-scaling-stroke"/><path stroke="#825f29" d="M400.58 47.85q-.24.17-.45.29-1.62.92-.69-.7l1.25-2.17" vector-effect="non-scaling-stroke"/><path stroke="#823b26" d="m400.69 45.27 6.2-11.59a1 .98-54.4 0 0-.19-1.2l-7.58-7.11" vector-effect="non-scaling-stroke"/><path stroke="#825f29" d="M399.12 25.37q-4.18-2.27 1.8-1.96" vector-effect="non-scaling-stroke"/><path stroke="#823b26" d="m400.92 23.41 6.4.06a.99.99 0 0 0 1-1.02l-.1-4.23a.99.97 18.4 0 0-.39-.76q-.59-.47-1.09.03" vector-effect="non-scaling-stroke"/><path stroke="#825f29" d="m406.74 17.49-17.82-.12q-2.01-.01-.81 1.6.8 1.07 1.55 2.22 1 1.54 1.13 3.53 2.08 32.53 2.5 47.28.06 1.96 1.57 1.36" vector-effect="non-scaling-stroke"/><path stroke="#ff8313" d="m406.74 17.49-5.82 5.92M399.12 25.37q1.93 9.95 1.57 19.9M400.58 47.85l1.16 12.46q.15 1.6 1.34.52l6.92-6.29M424.04 48.25q-5.74 8.42-10.58 17.47a1 .99 13.9 0 1-.88.53h-9.35q-.23 0-.44.1-5.67 2.82-7.93 7.01M424.79 45.33q6.75-9.6 12.06-20.02M448.12 17.65q-4.09 3.92-9.37 5.89" vector-effect="non-scaling-stroke"/><path stroke="#823b26" d="m262.64 73.07 17.82.18a1.01 1-81.7 0 0 .98-.74l4.6-16.76" vector-effect="non-scaling-stroke"/><path stroke="#825f29" d="M286.04 55.75c.97-.54 1.99-.36 2.7.58q6.43 8.6 13.07 17.03" vector-effect="non-scaling-stroke"/><path stroke="#823b26" d="m301.81 73.36 17.67-.12q1.97-.02.79-1.6L309.18 56.7a.8.79 64.2 0 1 .43-1.25q.21-.06.42-.11c3-.82 9.57-6.93 12.27-9.14a.96.96 0 0 0 .33-.51l4.79-17.97" vector-effect="non-scaling-stroke"/><path stroke="#825f29" d="M327.42 27.72q-2.26-5.29-6.44-9.89a1 .97-20 0 0-.74-.33h-44.46a1 1 0 0 0-.96.72q-.74 2.49 1.28 4.04a1.01 1.01 0 0 1 .35 1.05q-5.65 21.31-11.38 42.61c-.81 3.02-3.37 3.22-4.21 5.61q-.8 2.26 1.78 1.54" vector-effect="non-scaling-stroke"/><path stroke="#ff8313" d="M327.42 27.72q-5.22 1.95-9.64 5.13a.95.95 0 0 0-.36.48q-1.17 3.34-1.98 6.86c-.86 3.76-5.33 7.87-9.25 7.99q-5.04.17-10.07.05-2.03-.05-.84 1.58l11.6 15.91a.99.99 0 0 1-.13 1.31q-2.86 2.69-4.94 6.33M286.04 55.75l3.75-14" vector-effect="non-scaling-stroke"/><path stroke="#825f29" d="M289.79 41.75h14.93a1.01 1 7.5 0 0 .97-.74l2.52-9.51" vector-effect="non-scaling-stroke"/><path stroke="#ff8313" d="m308.21 31.5 5.31-5.56q1.62-1.69-.72-1.69h-26.3a1.01 1 7.5 0 0-.97.74l-10.91 40.64a.99.98-4.4 0 1-.57.66q-6.16 2.64-11.41 6.78" vector-effect="non-scaling-stroke"/><path stroke="#823b26" d="m308.21 31.5-14.92.06a1 .99-82.4 0 0-.96.74l-2.54 9.45" vector-effect="non-scaling-stroke"/><path stroke="#02403b" d="M415.45 26.72a.99.99 0 0 1-.95.62l-5.55-.18q-2.88-.09-.68 1.76l3.32 2.8a.99.98 33.6 0 1 .25 1.21l-1.16 2.31q-1.32 2.62 1.15 1.03l2.18-1.41a1.01 1.01 0 0 1 1.14.04c.37.27 5.81 5.81 5.48 3.41q-.57-4.1-.5-6.71a1 .99-16.4 0 1 .45-.81l3.36-2.19q2.94-1.92-.54-1.46l-2.91.38a1 1 0 0 1-1.13-1q.11-9.56-3.91.2M334.05 95.71q-12.9-8.05-28-10.1-6.51-.88-1.95.99.54.21 1.16.29 14.82 1.86 27.76 9.2c.05.03 3.17.95 1.03-.38M336.32 90.95q.05-.92-.56-1.61-2.15-2.44-1.08.63l.4 1.16q1.08 3.13 1.24-.18M304.48 97.73q-.03-1.61 1.28-.66 1.16.85 2.51 1.38.49.19.49-.28a.42.38-68.4 0 0-.1-.27c-1.36-1.52-11.13-6.22-10.14-3.84.17.4 4.47 4.29 4.93 4.4q1.05.24 1.03-.73M287.77 98.28c-6.36-2.89-13.26-.7-20.36 1.75a1 1 0 0 0-.62 1.26q.2.6.81.96c1.78 1.02 14.23-3.99 15.75-1.6a1 .99-11.4 0 0 .69.45l10.63 1.67a.98.96 32.7 0 0 .68-.14l2.21-1.37a1 1 0 0 0-.05-1.73q-3.62-1.95-7.79-2.31a.82.81-73.9 0 0-.78.44l-.13.25a.81.8-64.3 0 1-1.04.37" vector-effect="non-scaling-stroke"/><path stroke="#823b26" d="M316.69 98.94q-.13 1.34.79 2.34a.51.5-41.3 0 0 .71.04c.39-.33.32-.74.18-1.25q-.27-1.03.24-1.98.67-1.27-.72-.92-1.04.26-1.2 1.77" vector-effect="non-scaling-stroke"/><path stroke="#02403b" d="M255.27 103.19q3.31-1.29 6.71-2.45a.66.66 0 0 0 .43-.66c-.16-1.98-6.44 2.4-7.08 2.78q-1.48.89-.06.33M312.95 103.7q.62.1 1.22.71a.33.32 52.8 0 0 .4.06l.26-.15a.34.33-36.4 0 0 .08-.51q-2.39-2.6-3.84-2.9-4.74-.97-9.25.48-3.23 1.03.12 1.55 5.36.83 10.06 4.04.56.39 1.03.39.37 0 .7-.11a.65.64-33.7 0 0 .22-1.09l-1.52-1.35q-1.61-1.43.52-1.12" vector-effect="non-scaling-stroke"/><path stroke="#823b26" d="M328.16 107.25c.28-.54 1.18-.26 1.61.13q2.24 2.07 2.42-.66a1 .99-79.1 0 0-.68-1.01q-2.51-.84-4.28-2.76a1 1 0 0 0-1.52.06q-.86 1.1-.27 2.61a1.03 1.01-41.5 0 1-.06.84l-2.04 3.79a1.01 1.01 0 0 0 .2 1.21l1.69 1.57q1.69 1.58 1.68-.73v-.38a1.01.99-24 0 1 .27-.68l2.15-2.35q.7-.76-.34-.86l-.42-.03a.51.51 0 0 1-.41-.75" vector-effect="non-scaling-stroke"/><path stroke="#828b9e" d="m240.51 112.25 1.18-4.92a1 .99-79.8 0 0-.85-1.23c-9.77-1.15-16.47 8.28-13.78 17.31 1.83 6.15 10.29 9.61 14.97 4.12q4.34-5.08 4.18-11.55a1 1 0 0 0-.99-.97l-2.91-.05q-2.44-.04-1.8-2.71" vector-effect="non-scaling-stroke"/><path stroke="#02403b" d="M276.81 130.19q-1.88-1.88-3.92-3.8a1 .99-40.1 0 1 .14-1.56q9.02-5.95 19.22-9.57.98-.35 5.42.19a.99.98-65.8 0 0 .88-.34l1.06-1.24q1.58-1.86-.79-1.3-.65.15-1.31.2c-2.09.16-4.34-1.24-6.79-1.28q-.24-.01-.45-.12-2.34-1.26-5.48.18-10.57 4.84-20.2 11.07-1.64 1.06.18 1.77 6.48 2.51 12.06 6.67a.42.41-66.2 0 0 .65-.26q.09-.48-.67-.61" vector-effect="non-scaling-stroke"/><path stroke="#828b9e" d="M228.85 130.49q-7.17-6.03-4.34-16.42a.23.22 35.9 0 0-.03-.17c-1.07-1.67-2.18 8.27-2.16 8.52q.53 6.91 5.66 9.4 5.78 2.81.87-1.33" vector-effect="non-scaling-stroke"/><path stroke="#02403b" d="M315.05 118.77q-1.41 2.99-2.99 5.9c-1.92 3.55-5.7 4.8-9.36 5.68q-.16.04-.29.13-.57.35-.98.66-2.94 2.13.55 1.13 4.13-1.18 8.1-2.89c3.12-1.36 4.83-5.06 6.54-7.84a.98.98 0 0 0 .14-.63l-.19-1.88q-.3-2.85-1.52-.26M374.14 126.91q-4.64 6.36.66 2.86a1.04 1.03-51.8 0 1 .89-.11l6.35 2.24a.45.15 23.3 0 0 .39.03c.75-.71-6.21-4.87-7-5.31a1.01 1.01 0 0 0-1.29.29M330.15 131.19c-2.06-.11-13.4-.69-14.26.22q-.21.22-.31.48a.81.81 0 0 0 .74 1.09c3.49.04 9.94.7 13.11-.22q.56-.16.96-.35 2.28-1.08-.24-1.22M333.24 137.37l9.16-4.53a1 1 0 0 0 .56-.85q.03-.83-.96-.48-16.65 5.87-31.52 15.39a1 1 0 0 0 .03 1.7l2.18 1.29a.99.99 0 0 0 1.09-.04q8.54-6.14 17.62-11.41c.5-.29 1.33-.36 1.55-.79a.65.63-88 0 1 .29-.28" vector-effect="non-scaling-stroke"/><path stroke="#828b9e" d="m301.71 137.04-.77-1.82a1.02 1.01-17.8 0 0-1.15-.59c-1.62.38-7.43 1.21-8.34 2.27q-.46.55-.71 1.24a1 1 0 0 0 .55 1.25L304 144.9a1 .98-48.2 0 0 .9-.06l4.02-2.37q1.62-.96-.08-1.77l-6.63-3.14a1 .98-89.4 0 1-.5-.52M400.3 140.59l.45-.28q1.39-.86-.15-1.43c-.12-.05-5.92-2.84-5.84-2.09a.5.49 12.3 0 0 .26.4q2.24 1.21 2.36 3.85a1.01 1-78.4 0 0 .55.85l2.56 1.3a.81.78-42.4 0 0 .68.02c.89-.39-1.2-1.17-1.25-1.89a.8.8 0 0 1 .38-.73" vector-effect="non-scaling-stroke"/><path stroke="#02403b" d="M419.69 147.19q-.34 1.4.19 2.48 1.66 3.36 1.21-.36-.11-.96.06-1.91a.65.64-79.6 0 0-.51-.75q-.79-.14-.95.54M306.33 154.69q-4.7 10.6-9.18 21.23c-.47 1.12.68.3.79.13q6.82-9.9 11.71-21.88a.99.98 27.8 0 0-.38-1.21c-.24-.16-8.76-5.64-8.79-3.88a.67.67 0 0 0 .26.53l5.26 3.87a1.01 1 30.1 0 1 .33 1.21M204.93 155.35c-8.11 6.78-11.19 16.48-8.32 26.97.58 2.14 1.43 1.42 1.32-.04q-1.45-17.74 12.29-28.63 7.24-5.74-.88-1.33-2.24 1.21-4.41 3.03M383.71 153.71c-.72-.31-6.18-3.26-6.3-3.2a.27.26-34.6 0 0-.08.41q3.11 3.48 7.54 5a1.04 1 46 0 0 .56.02q3.31-.81 6.64-1.44c.05-.01.7-.36.17-.4-3.01-.22-5.81.77-8.53-.39" vector-effect="non-scaling-stroke"/><path stroke="#828b9e" d="m371.94 156.07-5.79 2.78q-2.93 1.41.28 1.89 17 2.54 33.91-.28 7.23-1.2-.06-1.98-6.98-.74-13.72 2.09a1.02 1.01 37.5 0 1-.54.07q-7.73-1.21-12.07-7.19-1.46-2.01-1.45.47v1.24a1.02 1.01 76.8 0 1-.56.91" vector-effect="non-scaling-stroke"/><path stroke="#02403b" d="M263.31 158.88c-1.36 3.46-12.28 38.78-6.57 38.25a.8.79 89.2 0 0 .72-.75q1-19.13 6.51-37.45a.48.46 40.5 0 0-.04-.39q-.28-.53-.62.34M270.44 167.94q-6.01 14.65-7.42 29.15a1 1 0 0 0 .8 1.08l1.2.23a.99.99 0 0 0 1.19-.95q.35-14.96 4.74-29.27c.08-.27.11-1.77-.51-.24M276.32 179.96q-.19.82-.99 1.09a1 1 0 0 0-.56 1.39q.28.58.11 1.2a1 1 0 0 0 .69 1.23l2.15.61a1 .99-54.8 0 0 .85-.15q1.29-.91 2.73-.19a1 1 0 0 0 1.4-.58l.12-.35a1.01 1 10.1 0 0-.92-1.31q-1.82-.07-2.16-1.58a1 1 0 0 0-.62-.71q-.84-.32-1.42-.99-1.02-1.19-1.38.34M294.45 191.71l-4.76-.06a.42.41-7 0 0-.41.51q.05.17.18.35c1.5 2 12.28 2.5 14.81 2.38a1.02 1.02 0 0 0 .6-.24q2.21-1.9-.7-2.82c-2.62-.82-7.19-2.45-8.18-5.09q-.36-.98-.5-2.02-.33-2.5-1.5-.26-.68 1.3-.8 2.79a.99.95 28 0 0 .24.73l1.79 2.08q1.45 1.68-.77 1.65M339.55 192.65q-1.87 1.36-.66 2.53a1 1 0 0 0 1.52-.16l1.43-2.09a1.03 1-36.5 0 0 .14-.83l-1.79-6.58a.38.21 80 0 0-.22-.27c-.16-.02.03 6-.01 6.65a1.01 1.01 0 0 1-.41.75M279.64 188.02q-.49.85-.8 2.04a1 1 0 0 0 .74 1.23q5.53 1.27 5-.6a1 1 0 0 0-.89-.73q-1.8-.13-2.21-1.7-.62-2.37-1.84-.24M211.69 202.94q-.47 10.92-7.64 18.23-4.91 5.01.83.98 5.98-4.22 7.43-12.61 1.36-7.92-.56-14.78c-.54-1.93-.84.5-.76.87q.84 4 .7 7.31M234.69 200.63q-.17.62-.32 1.25-.44 1.77.05 3.75 1.65 6.62 2.5 13.43a.42.4 7.6 0 0 .27.33q.61.23.65-.65.45-9.27-1.2-18.03-.8-4.24-1.95-.08" vector-effect="non-scaling-stroke"/><path stroke="#828b9e" d="m258.63 207.66 5.77.46a.99.98-86.1 0 0 1.07-.94l.17-3.11a1 .99 5.7 0 0-.86-1.04l-9.82-1.38a.99.99 0 0 0-1.1.71q-1.64 5.65-1.58 11.54a1 1 0 0 1-.98 1.01l-4.72.13a.99.99 0 0 0-.96.85q-.98 6.31 2.77 11.17a1 1 0 0 0 1.53.06l2.58-2.8a.99.98 30.9 0 1 1.06-.26c4.65 1.61 7.06 6.71 9.5 10.63q1.93 3.09 5.97 2.73a1 1 0 0 0 .88-1.23q-.46-1.89.22-3.58.58-1.44 3.02-2.99 5.3-3.34 9.56-8.01a1.01 1 60.4 0 0 .24-.89l-1.38-6.13a1.02 1-3.8 0 0-.91-.78q-8.41-.57-16.67-2.26-3.08-.63-5.88-1.99-4.74-2.32.52-1.9" vector-effect="non-scaling-stroke"/><path stroke="#02403b" d="M287.81 216.81q.6-2.89-1.47-2.37a1.01.99 79.5 0 0-.75 1.11c.06.38 2.63 8.24 3.42 6.29a.21.19-48.6 0 0 0-.17q-1.51-3.37-1.2-4.86M341.22 216.95q-.21.48-.43.94-2.89 6.13 1.35.85.8-1 1.44-2.14 1.41-2.55-1.11-1.08-.83.48-1.25 1.43M256.84 234.53q4.76 4.3 1.2-1.04l-2.47-3.7a1.01 1 60 0 0-1.27-.35q-.48.24-.55.81-.08.6.45 1.35 1.07 1.51 2.64 2.93M313.65 235.83q-1.84 1.54.53 1.12l3.92-.69q2.41-.43-.01-.81-.66-.1-1.35.08a1.07 1.04-42.2 0 1-.57-.02q-1.51-.52-2.52.32M229.22 249.76a.34.34 0 0 0 .49.2l2.3-1.28a.34.34 0 0 0 .09-.52l-4.15-4.77a.34.34 0 0 0-.58.32l1.85 6.05M255.83 264.92l.46-.13a.8.8 0 0 0 .41-1.26l-2.27-2.89q-3.57-4.56-1.37.8.68 1.63 1.67 3.08a1 .99 64.6 0 0 1.1.4" vector-effect="non-scaling-stroke"/></g><path fill="#fff" d="M220.59 133.91q-7.51-9.34-2.39-20.98 2.38-5.41 6.93-9.73 1.09-1.04-.41-.88-.32.03-.69.19-.97.43-1.36-.28a.63.63 0 0 1 .06-.72l4.89-5.84a1 .98-69.7 0 1 .76-.36q9.84 0 17.51 6.06a1 .99 49.2 0 0 1.11.09l13.75-7.87a.99.99 0 0 1 .9-.04l2.71 1.19a1.03 1-41.9 0 0 .74.03q9.24-3.35 18.98-3.58 2.86-.06.58-1.79l-.59-.45q-1.65-1.25.42-1.43 5.64-.5 11.26.12a1.01 1-5.5 0 0 1.07-1.29q-1.46-4.73-4.8-8.4-1.23-1.36-1.7.41l-1.17 4.4a1.01 1 7.5 0 1-.97.74h-80.81a1 1 0 0 1-.96-1.29l2.74-9.06q.73-2.44-1.26-.86l-14.25 11.24a.99.98 25.2 0 1-.62.22h-41.53a1 .98 71.6 0 1-.8-.41L138.7 66.93a1 .99-56 0 1-.16-.84l9.9-38.06a1.01.98-65.9 0 0-.4-1.08l-26.1-17.74q-2.69-1.82.56-1.82l202.86-.03a1 .98 71.6 0 1 .8.41l5.26 7.04a1 1 0 0 0 1.42.19l9.6-7.52a1.06 1.01-62.3 0 1 .62-.21l119.5-.15a1 1 0 0 1 .96 1.27l-4.89 17.65a1.01.98-9.3 0 1-.43.58q-3.34 2.13-4.02 3.31-15.32 26.63-30.94 53.08a1 1 0 0 1-.86.49h-85.12a.26.26 0 0 0-.26.27v.26a.34.32 16.8 0 0 .16.28q2.38 1.43 3.97 3.73a.98.96 29.3 0 1 .18.62l-.34 6.29a1.01.99 18.9 0 0 .44.88l15.92 10.94a1.01 1 40.7 0 1 .12 1.56q-3.3 3.05-8.18 2.53-5.88-.64-11.72-2.4a1 .99-74.2 0 0-1.26.71l-.8 3.19a1 1 0 0 1-1.07.75l-1.2-.12a1.03 1 18.5 0 0-.96.46l-3.16 5.1a1 .96-77.7 0 1-.67.45c-.83.15-1.28.45-1.66 1.26q-.96 2.03-2.12 3.97-.89 1.5.86 1.51l5.93.01q1.84.01.84-1.54l-1.23-1.92q-.99-1.54.84-1.54h17.48q2.15 0 .52-1.41-2.09-1.8 1.35-1.89c8.35-.24 19.42-.08 27.25 3.08a1 1 0 0 0 1.26-.47l2.45-4.7a1 .99-61.9 0 1 1.36-.42q7.02 3.81 11.33 10.6a.94.92-3 0 0 .42.37l10.29 4.77a.97.97 0 0 1 .53.6c2.12 6.72 14.8 9.48 20.67 10.87q2.89.69 3.42 3.61c.68 3.72-.24 6.96.24 10.76a.99.98 60.3 0 1-.2.75q-1.86 2.34-4.74 2.91a1.01.98 13.6 0 0-.56.33q-5.32 6.15-13.08 5.52-3.37-.27-5.28-.01-22.98 3.15-46.01-.04a1.03 1.01 31 0 0-.71.17q-7.44 5.14-13.78 11.6a1.01 1 54.8 0 0-.19 1.11q3.5 7.75 3.85 16.21a1.01 1-80.5 0 0 .63.89q7.81 3.1 15.06 7.36a.98.98 0 0 1 .48 1.01q-.99 6.38-3.89 12.14a1.07 1.02 1.1 0 1-.52.48c-10.18 4.17-19.31 13.43-25.68 22.64a1.04 1.03 13.6 0 1-.71.43q-14.83 1.74-29.27 5.55a1 1 0 0 1-1.24-.82q-.66-4.49 1.09-8.55 2.66-6.17 7.88-10.51a1.01 1.01 0 0 1 .8-.22l6.35.98a1 1 0 0 0 1.03-.5c2.71-4.83 8.29-1.77 9.7-3.91q.13-.2.19-.41a.8.8 0 0 0-.92-.98c-8.7 1.49-18.59 4.34-23.94 1.57a1.02 1.01 38.1 0 0-1.11.13c-4.15 3.5-8.98 6.05-12.67 9.63q-9.22 8.93-18.1 18.19a1 1 0 0 1-.87.29q-8.66-1.27-17.6-.94-3.78.14-1.12 3.45l7.21 8.96a.99.97-19.5 0 0 .79.37c28.59-.5 58.43-.14 86.57 5.33.61.11 1.4.88.35 1.12q-23.6 5.43-50.25 6.82-48.76 2.54-97.42-1.53-13.36-1.11-26.53-3.55-4.37-.8 0-1.57 31.28-5.5 63.06-6.24a1.01.99-82 0 0 .94-.72l.56-1.97a1 .99 28.3 0 0-.32-1.04q-2.22-1.87-2.63-4.66a1 1 0 0 0-1.49-.73q-7.76 4.49-16.74 2.8a1 1 0 0 1-.81-.93c-.22-3.94-.54-10.37-5.22-10.56a1.02 1.02 0 0 1-.77-.4c-4.84-6.54-12.77-9.23-20.48-11.04a1.03 1-4.7 0 1-.68-.56l-.91-2a1 .98-9.8 0 0-.84-.58q-14.33-.96-27.52-6.4-3.27-1.35.26-1.54 14.18-.76 28.3-2.11c8.24-.79 12.97-12.37 13.57-19.67a1 .99 15.5 0 0-.56-.98q-9.4-4.6-13.55-14.17a1.02.99-8.3 0 0-.83-.6l-40.12-3.56a.42.15 7.4 0 1-.43-.22c.8-2.3 33.81-7.05 37.73-7.4a1.01 1 89 0 0 .91-.95l.16-3.14a1.01 1-82.5 0 0-.79-1.03c-9.13-1.96-14.94-.25-25.59 2.47-10.26 2.63-23.41 8.1-35.02 4.63q-16.78-5.02-18.64-23.6-.21-2.1 1.34-.66 2.3 2.12 5.11 3.46c4.97 2.38 13.81 1.53 18.65.12 19.12-5.58 30.41-8.51 48.86-.24q4.92 2.2 11.83.5a1.01.93 12.7 0 0 .47-.27l4.09-4.11q1.34-1.34-.52-1.68-9.15-1.72-18.47-1.76a.54.51 71 0 1-.42-.22c-.65-.94 5.88-.87 6.8-1.88q.49-.55-.24-.55l-18.6-.16a.74.16-1 0 1-.68-.14l-.07-.18a.33.25-18 0 1 .24-.35q14.32-4.5 17.51-5.16 15.19-3.15 36.48-3.53 1.64-.03.61-1.3Zm43.84-90.87-5.49 20.72a1 .98-12.9 0 1-.34.53l-2.73 2.19a.96.96 0 0 0-.33.51l-3.24 11.49a1 1 0 0 0 .96 1.27h32.1a1 .99 7.6 0 0 .96-.73l2.48-8.98q.55-1.99 1.77-.33l7.09 9.63a1.01 1-18 0 0 .81.41h68.71a.99.98 25.2 0 0 .62-.22l14.5-11.6a1.04 1-13.7 0 0 .35-.55l1.74-7.2q1.28-5.35 1.57.14l.98 18.48a1 1 0 0 0 1 .95h32.5a1.01 1 15 0 0 .87-.5q14.74-25.24 29.41-50.55 1.43-2.46 4.41-4.36a1.01.98-9.3 0 0 .43-.58l3.07-11.53a1.01 1-82.6 0 0-.97-1.26l-28.88.05a.99.99 0 0 0-.85.48l-3.97 6.62q-1.31 2.18-1.49-.36l-.48-6.99q-.24-3.45-1.88-.4l-4.91 9.11a.34.33 24.8 0 1-.42.15c-.26-.11-.5-7.08-.55-7.71a1.01 1 87.2 0 0-1-.91L344.3 11a1 .99-63.7 0 0-.61.21l-11.53 9.03a1.01 1.01 0 0 1-1.43-.2l-6.34-8.64a1.02 1-18 0 0-.81-.4H134.45q-3.24 0-.57 1.82l18.39 12.57a1 1 0 0 1 .4 1.08l-10.18 38.86a1.03.99-56.7 0 0 .16.85l9.87 13.41a1 .98 71.6 0 0 .8.41h38.51a1.06 1.01-62.3 0 0 .62-.21l14.51-11.47a1 .98-12.9 0 0 .34-.53l6.86-25.56a1 .99-82.1 0 1 .97-.74l5.1.02a1.01 1-64.5 0 0 .64-.23l2-1.67q1.93-1.61 1.29.82L218 63.72a1.02.99-13.4 0 1-.31.49l-2.85 2.5a1.05 1.01-14.1 0 0-.3.48l-3.22 11.29a1 1 0 0 0 .96 1.27h34.68a1 1 0 0 0 .97-.77c.54-2.21 3.54-10.1 1.12-11.4a1 .99 22 0 1-.49-1.14q3.51-12.94 7.02-25.43.95-3.39 4.01-1.74a.99.97-89.3 0 1 .42.44q1.13 2.28 3.36 2.07a1.01 1-85.1 0 1 1.06 1.26Zm111.6 34.34q-1.5 1.69-.33 2.22a.8.8 0 0 0 1.04-.38l1.75-3.55a1 1 0 0 0-.86-1.44q-1.7-.06-1.36 2.34a1 .99-28.7 0 1-.24.81Zm5.55-1.87q-.07-.67-.65-.9a.8.8 0 0 0-1.01.39l-1.58 3.15a1 1 0 0 0 .91 1.45l3-.05a1.02 1.02 0 0 0 .9-.61c.3-.69 2.65-5.44.13-4.28a1.06 1.05-2.4 0 0-.52.56q-.1.26-.22.49-.8 1.43-.96-.2ZM242.21 266q-24.91.09-49.65 2.86-7.25.8 0 1.59 13.24 1.43 27.25 1.94 46.09 1.68 92.11-1.17 17.39-1.07 28.08-2.45.86-.12.41-.6a.56.5 69.1 0 0-.33-.17c-26.22-2.6-52.96-2.54-79.29-2.5-2.83-4.9-7.67-8.92-9.72-13.73q-2.3-5.41-2.38-11.12-.05-3.07 1.8-.61l4.6 6.12a.98.96-19.5 0 0 .84.39q8.48-.36 16.91.66a1 .98 25.3 0 0 .83-.29q9.32-9.47 18.95-18.64c3.64-3.46 8.38-5.57 12.11-9.6a.99.98 32.6 0 1 1.12-.24c3.01 1.28 4.98 2.14 8.42 1.61q10.65-1.63 21.38-3.05 1.92-.25 1.02 1.46l-3.24 6.13a1.01.99 8.8 0 1-.73.52l-6.8 1.01a.99.99 0 0 0-.77.59l-.89 2.03a1 1 0 0 1-.99.6l-7.97-.59a1.02.98 25.8 0 0-.73.24q-5.31 4.58-6.9 11.37a1.01 1 0 0 0 1.21 1.2q12.07-2.89 24.35-4.52a1.02.98-72.7 0 0 .62-.34c7.97-9.12 14.59-16.86 25.69-22.44a1.03 1.01 85.6 0 0 .49-.58l2.55-7.53a1.01 1-65.8 0 0-.45-1.19q-7.77-4.47-16.23-7.39a1 1 0 0 1-.52-1.47q.62-1.02 1.01-2.15c1.12-3.21-2.7-12.48-3.97-15.83a1.02 1.01 56.4 0 1 .2-1.03q5.56-6.06 12.15-10.95 1.24-.93-.23-1.4-8.3-2.69-15.66-7.38a.22.18 29.3 0 1-.09-.24q.05-.12.21-.06c21.48 7.92 45.86 9.2 68.33 5.64 3.6-.58 6.61 1.11 10.01-.37q2.26-.99 4.2-2.65a1 1 0 0 0-.14-1.62q-2.45-1.46 1.35-.82 1.97.33 3.66-.7a.97.96-11.6 0 0 .47-.71c.41-2.99 2.19-10.09-1.85-11.04-7.8-1.84-17.81-4.12-21.69-11.67a1.03 1.01-.6 0 0-.49-.47l-9.13-3.92a.94.91 84 0 1-.43-.36q-3.51-5.19-8.37-9.09a1 1 0 0 0-1.53.35l-1.98 4.28a1.01 1-67.5 0 1-1.25.52q-11.94-4.33-24.67-3.6-1.92.11-.49 1.39 1.53 1.36-.49 1.36-8.52-.02-17.09.31a1 1 0 0 0-.81 1.52l1.11 1.82q.93 1.52-.85 1.52h-16.9q-1.76 0-.86-1.51 2.01-3.39 4.17-6.68.78-1.2.77-2.42-.01-1.01-.17-2.01-.28-1.7 1.2-.81 2.93 1.77 3.53-2.05.55-3.53 3.51-3.18a.99.99 0 0 0 1.11-.95q.11-2.68 2.52-4.08a1.03 1.02-49.6 0 1 .85-.07q5.62 2.05 11.49 3.16 1.98.38 3.96.24 2.53-.18.35-1.48-7.52-4.51-14.38-9.96a1.02 1 22.7 0 1-.38-.9l.73-6.19a1.01 1.01 0 0 0-.32-.86q-6.09-5.53-14.4-6.06a1.02 1.01 25.1 0 0-.73.26l-3.54 3.19a1.02 1 32.6 0 1-.99.21q-8.21-2.77-16.88-3.4-3.62-.26-1.31 2.57 3.84 4.7 10.09 8.98c.49.33 1.56 1.59.52 1.87a.81.8-33 0 1-.72-.15q-7.5-6.05-17.16-5.72-2.32.09-.44 1.45 1.97 1.43 3.88 2.94.2.16.17.46a.33.32-81.6 0 1-.39.3c-12.38-2.65-18.65-1.46-31.63 2.07a1.03 1.02 51.2 0 1-.73-.08l-1.82-.96a1.01.98 42.8 0 0-.97.02l-12.2 7.08q-.19.11-.4.13l-3.14.31a1.01.99-26.6 0 1-.75-.24q-5.65-4.98-13.18-6.1a1 .98-63.5 0 0-.87.3q-3.15 3.32 3.26 2.14a.98.97-32.8 0 1 .75.16q1.89 1.3 1.04 1.4c-14.34 1.62-22.91 25.58-9.18 32.55 6.36 3.23 12.72-.05 17.8-4.35q6.02-5.08 6.77-13.57.01-.2.11-.39l2.4-4.38a1 .99-79.5 0 1 .73-.51l14.76-2.29a1 .98 20.8 0 0 .48-.21c.69-.55 1.23-.95 2.19-.95q3.36.02 6.51-.14 4.04-.21.39 1.52-10.86 5.12-20.74 11.86-1.79 1.22-2.52 3.07-2.11 5.4-2.03 11.21a.99.99 0 0 1-.98 1.01l-9.78.14q-3.4.05-.14 1.01.41.11.81.24 11.21 3.54-.44 1.94-26.85-3.68-53.57.83-7.77 1.32.11 1.59 10.91.38 21.76 1.81a.07.05 2.5 0 1 .05.04q.02.05.02.1a.28.02-6.3 0 1-.27.05l-14.81 1.56a.25.23-69.2 0 0-.14.07q-.33.38.3.46 4.59.58 8.95 1.22 2.18.32.3 1.48-5.46 3.32-9.38 8.41a1.01.97 8 0 1-.47.34c-6.76 2.31-10.76 1.17-17.93-1.67q-15.15-5.99-31.81-1.68c-8.38 2.17-13.67 4.32-20.78 4.29a.44.4 20.8 0 0-.3.12c-.34.36.08.87.43 1q9 3.39 18.62 2.49.3-.03.59 0 2.75.26.27.66-16.5 2.62-30.9-5.07-2.33-1.24-1.41 1.23 2.43 6.54 7.85 10.28c15.85 10.95 40.84-4.09 58.14-5.01q5.53-.3 12.11 2.17a.99.99 0 0 1 .65.97l-.34 8.18a1 1 0 0 1-.97.96q-13.23.45-26.3 2.57a.32.32 0 0 0-.26.22q-.12.39.43.39 14.11.05 28.06 2.19a.97.97 0 0 1 .78.63q3.88 10.32 14.06 14.67a1 1 0 0 1 .61.89q.43 15.45-11.35 23.64-1.86 1.29-4.38 1.5-6.45.55-12.94.75-8.25.25-.1 1.59 6.99 1.15 14.08 1.59a1.02 1 87.1 0 1 .93.85l.3 1.94a1 .99-89.7 0 0 .81.83q12.06 2.17 20.5 10.93a1.01.97 70.5 0 0 .6.3c4.81.6 5.45 6.3 5.81 10.28a1 .99 90 0 0 .89.9q7.41.77 13.6-3.16a1 .99 56.2 0 0 .28-1.42q-9.64-13.6-24.91-20.24-2.16-.94.01-1.84 12.31-5.12 17.89-17.15.98-2.13 1.5.16 1.03 4.53 2.21 9.07 1.57 6.07.53 12.31a1.01.99 25.3 0 0 .34.92c6.56 5.66 6.91 14.64 7.08 22.67a1.01 1 21.2 0 0 .32.71l2.68 2.52a1.01 1 29.3 0 1 .28.98l-1.83 7.04ZM263 112.96l-6.96 1.29q-2.18.4-2.27 3.8l-.01.6q-.04 1.53 1.23.7l8.26-5.39q2.55-1.88-.25-1ZM248.84 130q-.99 1.15-2.21 2.06-1.93 1.43.47 1.44l1.89.01a1.01 1 3.5 0 0 1-.88l.25-2q.33-2.62-1.4-.63ZM230 232.76c-.24-1.96.76-3.9.8-5.6q.09-4.74-1.16-9.08-.55-1.93-1.76-.33-4.12 5.47-9.96 9.07a1 1 0 0 0 .04 1.72q9.08 5.1 16.13 12.68 3.76 4.03 1.66-1.06-1.67-4.04-5.35-6.71a1.01 1 15.2 0 1-.4-.69Z"/><path fill="#04173c" d="M263.37 41.78q-2.23.21-3.36-2.07a.99.97-89.3 0 0-.42-.44q-3.06-1.65-4.01 1.74-3.51 12.49-7.02 25.43a1 .99 22 0 0 .49 1.14c2.42 1.3-.58 9.19-1.12 11.4a1 1 0 0 1-.97.77h-34.68a1 1 0 0 1-.96-1.27l3.22-11.29a1.05 1.01-14.1 0 1 .3-.48l2.85-2.5a1.02.99-13.4 0 0 .31-.49l6.16-23.29q.64-2.43-1.29-.82l-2 1.67a1.01 1-64.5 0 1-.64.23l-5.1-.02a1 .99-82.1 0 0-.97.74l-6.86 25.56a1 .98-12.9 0 1-.34.53l-14.51 11.47a1.06 1.01-62.3 0 1-.62.21h-38.51a1 .98 71.6 0 1-.8-.41l-9.87-13.41a1.03.99-56.7 0 1-.16-.85l10.18-38.86a1 1 0 0 0-.4-1.08l-18.39-12.57q-2.67-1.82.57-1.82h189.13a1.02 1-18 0 1 .81.4l6.34 8.64a1.01 1.01 0 0 0 1.43.2l11.53-9.03a1 .99-63.7 0 1 .61-.21l68.93.01a1.01 1 87.2 0 1 1 .91c.05.63.29 7.6.55 7.71a.34.33 24.8 0 0 .42-.15l4.91-9.11q1.64-3.05 1.88.4l.48 6.99q.18 2.54 1.49.36l3.97-6.62a.99.99 0 0 1 .85-.48l28.88-.05a1.01 1-82.6 0 1 .97 1.26l-3.07 11.53a1.01.98-9.3 0 1-.43.58q-2.98 1.9-4.41 4.36-14.67 25.31-29.41 50.55a1.01 1 15 0 1-.87.5h-32.5a1 1 0 0 1-1-.95l-.98-18.48q-.29-5.49-1.57-.14l-1.74 7.2a1.04 1-13.7 0 1-.35.55l-14.5 11.6a.99.98 25.2 0 1-.62.22h-68.71a1.01 1-18 0 1-.81-.41l-7.09-9.63q-1.22-1.66-1.77.33l-2.48 8.98a1 .99 7.6 0 1-.96.73h-32.1a1 1 0 0 1-.96-1.27l3.24-11.49a.96.96 0 0 1 .33-.51l2.73-2.19a1 .98-12.9 0 0 .34-.53l5.49-20.72a1.01 1-85.1 0 0-1.06-1.26ZM157.41 73.16l32.17.08a1.03.99 25.2 0 0 .62-.21l10.89-8.49a1.01.98 79.6 0 0 .35-.52q5.52-19.67 10.6-39.47c.78-3.03 3.75-3.09 4.45-6.78q-5.35-.39-20.24-.55-4.3-.04-3.34 3.54.06.22.2.39l1 1.16a1.02 1.02 0 0 1 .21.91l-9.46 35.37a1 .99-82.4 0 1-.96.74l-14.9.13 9.49-36.49a1.05 1.03-6.4 0 1 .52-.64q2.5-1.25 3.31-3.63a1 1 0 0 0-.87-1.32q-.88-.07-1.7.16l-24.4-.01q-2.52-.01-.46 1.45l4.97 3.51a1 .99 25.1 0 1 .39 1.07l-10.71 40.19a1.02.99 34.5 0 0 .17.85l6.1 8.27a.99.99 0 0 0 .96.39l.64-.1ZM216.21 32c-2.57 4.13 4.11.76 5.29-.26a1.04.99-64.2 0 1 .66-.25l11.05.01q-4.44 17.47-9.33 34.83c-.3 1.09-6.34 6.65-3.24 6.76l21.36.14a1 .99-79.7 0 0 .95-.66l.48-1.34a1.01 1.01 0 0 0-.16-.97l-1.5-1.87a.99.98-57.4 0 1-.19-.88l9.47-35.27a1 .99-82.4 0 1 .96-.74h10.18a1.02.99-22.5 0 1 .7.28l2.85 2.78a1 1 0 0 0 1.64-.39q2.42-7.16 3.69-15.15.22-.19.32-.44a.8.8 0 0 0-.74-1.1l-49.82.03a.99.98 7.1 0 0-.96.74L216.21 32Zm115.97 41.62 32.49-.14a1.04.97-62.4 0 0 .62-.22l11.24-8.97a1 .94-13.2 0 0 .35-.53l5.87-22.94q-12.35-.68-24.13-.16a1 1 0 0 0-.91.7l-1.74 5.69-1.42 5.92a1 1 0 0 0 .95 1.24l5.5.08-.95 4.26a1.02 1.01-83.8 0 1-.97.79l-15.08.12 7.25-27.06a.99.98 7.1 0 1 .96-.74l15.04-.12-.48 2.73a1 .99 5.1 0 0 .98 1.17l8.75.02 6.96-.01a.99.99 0 0 0 .95-.71l2.28-7.5-6.7-9.63a1.02 1-17.2 0 0-.83-.43l-32.46.3a1.01.99 24 0 0-.6.22l-11.37 8.87a1.03.96 80.4 0 0-.35.53l-9.79 36.56a1.04 1.03-53.3 0 0 .11.79q3.25 5.21 7.48 9.17Zm62.68-.26 21.45.06a1.01 1 15 0 0 .87-.5q14.15-24.51 28.5-48.89c1.15-1.96 3.35-2.84 3.88-5.63a.8.8 0 0 0-.85-.94q-.29.02-.59.19l-15.75-.41a1 .99-73.8 0 0-.89.49l-2.52 4.22q-.89 1.5.85 1.51l8.94.08q-.76 1.15-1.9 1.77l-12.52 7.44a1.01 1-17.8 0 0-.49.94l.95 11.64q.59 1.97-.75 2.92-2.3-3.3-5.66-5.46a1.01 1-57.7 0 0-1.4.32L410 54.54l-.68-10.67a1 1 0 0 0-1.55-.77l-7.19 4.75q-.24.17-.45.29-1.62.92-.69-.7l1.25-2.17 6.2-11.59a1 .98-54.4 0 0-.19-1.2l-7.58-7.11q-4.18-2.27 1.8-1.96l6.4.06a.99.99 0 0 0 1-1.02l-.1-4.23a.99.97 18.4 0 0-.39-.76q-.59-.47-1.09.03l-17.82-.12q-2.01-.01-.81 1.6.8 1.07 1.55 2.22 1 1.54 1.13 3.53 2.08 32.53 2.5 47.28.06 1.96 1.57 1.36Zm-132.22-.29 17.82.18a1.01 1-81.7 0 0 .98-.74l4.6-16.76c.97-.54 1.99-.36 2.7.58q6.43 8.6 13.07 17.03l17.67-.12q1.97-.02.79-1.6L309.18 56.7a.8.79 64.2 0 1 .43-1.25q.21-.06.42-.11c3-.82 9.57-6.93 12.27-9.14a.96.96 0 0 0 .33-.51l4.79-17.97q-2.26-5.29-6.44-9.89a1 .97-20 0 0-.74-.33h-44.46a1 1 0 0 0-.96.72q-.74 2.49 1.28 4.04a1.01 1.01 0 0 1 .35 1.05q-5.65 21.31-11.38 42.61c-.81 3.02-3.37 3.22-4.21 5.61q-.8 2.26 1.78 1.54Zm152.81-46.35a.99.99 0 0 1-.95.62l-5.55-.18q-2.88-.09-.68 1.76l3.32 2.8a.99.98 33.6 0 1 .25 1.21l-1.16 2.31q-1.32 2.62 1.15 1.03l2.18-1.41a1.01 1.01 0 0 1 1.14.04c.37.27 5.81 5.81 5.48 3.41q-.57-4.1-.5-6.71a1 .99-16.4 0 1 .45-.81l3.36-2.19q2.94-1.92-.54-1.46l-2.91.38a1 1 0 0 1-1.13-1q.11-9.56-3.91.2Z"/><path fill="#ffa616" d="M179.75 17.54c.44.72.32 1.24-.48 1.61q-4.71 2.18-9.23 4.78a1.04 1.01 82.7 0 0-.46.61q-4.24 15.62-8.48 31.6c-.85 3.19-.28 5.09 2.23 7.01a1 1 0 0 0 1.24-.02l4.43-3.67 14.9-.13a1 .99-82.4 0 0 .96-.74l9.46-35.37a1.02 1.02 0 0 0-.21-.91l-1-1.16q-.14-.17-.2-.39-.96-3.58 3.34-3.54 14.89.16 20.24.55-6.35 2.86-11.51 6.8a1.03 1-11.9 0 0-.34.5q-5.09 16.14-9.94 32.36c-1.21 4.04-4.01 6.3-7.19 8.69a1.01.98 24.7 0 1-.57.2c-4.84.15-20.34-.98-23.75 1.19q-3.44 2.2-5.78 5.65l-.64.1a.99.99 0 0 1-.96-.39l-6.1-8.27a1.02.99 34.5 0 1-.17-.85l10.71-40.19a1 .99 25.1 0 0-.39-1.07l-4.97-3.51q-2.06-1.46.46-1.45l24.4.01Z"/><path fill="#ff5f10" d="m169 59.46-4.43 3.67a1 1 0 0 1-1.24.02c-2.51-1.92-3.08-3.82-2.23-7.01q4.24-15.98 8.48-31.6a1.04 1.01 82.7 0 1 .46-.61q4.52-2.6 9.23-4.78c.8-.37.92-.89.48-1.61q.82-.23 1.7-.16a1 1 0 0 1 .87 1.32q-.81 2.38-3.31 3.63a1.05 1.03-6.4 0 0-.52.64L169 59.46Z"/><path fill="#ffa616" d="m271.07 19.02-8.87 5.09q-.23.13-.5.13h-36.72a1.05 1.01-65.7 0 0-.7.28q-3.46 3.38-6.3 7.23-.72.98-1.77.25l3.66-13.75a.99.98 7.1 0 1 .96-.74l49.82-.03a.8.8 0 0 1 .74 1.1q-.1.25-.32.44ZM386.69 27.24l-9.73 5.5a1.02.99 75.3 0 0-.51.9l.05 1.82-8.75-.02a1 .99 5.1 0 1-.98-1.17l.48-2.73 4.95-5.52q1.45-1.62-.73-1.67-10.04-.21-20.09-.08c-3.73.05-7.49 3.37-8.46 6.92q-3.35 12.3-6.78 24.6c-.95 3.39-.64 5.47 2.16 7.51a1.01 1.01 0 0 0 1.24-.05l4.46-3.79 15.08-.12a1.02 1.01-83.8 0 0 .97-.79l.95-4.26 10.22-6.12q1.71-1.02 1.19.89-1.3 4.78-2.93 9.73c-1.09 3.34-4.69 5.49-7.46 7.36a1.02.97 26.8 0 1-.56.17q-9.64-.04-19.34.12-2.33.04-3.97 1.16-3.49 2.4-5.97 6.02-4.23-3.96-7.48-9.17a1.04 1.03-53.3 0 1-.11-.79l9.79-36.56a1.03.96 80.4 0 1 .35-.53l11.37-8.87a1.01.99 24 0 1 .6-.22l32.46-.3a1.02 1-17.2 0 1 .83.43l6.7 9.63ZM406.74 17.49l-5.82 5.92q-5.98-.31-1.8 1.96 1.93 9.95 1.57 19.9l-1.25 2.17q-.93 1.62.69.7.21-.12.45-.29l1.16 12.46q.15 1.6 1.34.52l6.92-6.29 6.98-11.43a1.01 1-57.7 0 1 1.4-.32q3.36 2.16 5.66 5.46-5.74 8.42-10.58 17.47a1 .99 13.9 0 1-.88.53h-9.35q-.23 0-.44.1-5.67 2.82-7.93 7.01-1.51.6-1.57-1.36-.42-14.75-2.5-47.28-.13-1.99-1.13-3.53-.75-1.15-1.55-2.22-1.2-1.61.81-1.6l17.82.12Z"/><path fill="#ff5f10" d="M406.74 17.49q.5-.5 1.09-.03a.99.97 18.4 0 1 .39.76l.1 4.23a.99.99 0 0 1-1 1.02l-6.4-.06 5.82-5.92Z"/><path fill="#ffa616" d="M448.12 17.65q-4.09 3.92-9.37 5.89l-8.94-.08q-1.74-.01-.85-1.51l2.52-4.22a1 .99-73.8 0 1 .89-.49l15.75.41ZM327.42 27.72q-5.22 1.95-9.64 5.13a.95.95 0 0 0-.36.48q-1.17 3.34-1.98 6.86c-.86 3.76-5.33 7.87-9.25 7.99q-5.04.17-10.07.05-2.03-.05-.84 1.58l11.6 15.91a.99.99 0 0 1-.13 1.31q-2.86 2.69-4.94 6.33-6.64-8.43-13.07-17.03c-.71-.94-1.73-1.12-2.7-.58l3.75-14h14.93a1.01 1 7.5 0 0 .97-.74l2.52-9.51 5.31-5.56q1.62-1.69-.72-1.69h-26.3a1.01 1 7.5 0 0-.97.74l-10.91 40.64a.99.98-4.4 0 1-.57.66q-6.16 2.64-11.41 6.78-2.58.72-1.78-1.54c.84-2.39 3.4-2.59 4.21-5.61q5.73-21.3 11.38-42.61a1.01 1.01 0 0 0-.35-1.05q-2.02-1.55-1.28-4.04a1 1 0 0 1 .96-.72h44.46a1 .97-20 0 1 .74.33q4.18 4.6 6.44 9.89Z"/><path fill="#ff5f10" d="M448.12 17.65q.3-.17.59-.19a.8.8 0 0 1 .85.94c-.53 2.79-2.73 3.67-3.88 5.63q-14.35 24.38-28.5 48.89a1.01 1 15 0 1-.87.5l-21.45-.06q2.26-4.19 7.93-7.01.21-.1.44-.1h9.35a1 .99 13.9 0 0 .88-.53q4.84-9.05 10.58-17.47 1.34-.95.75-2.92 6.75-9.6 12.06-20.02 1.14-.62 1.9-1.77 5.28-1.97 9.37-5.89ZM216.49 17.77c-.7 3.69-3.67 3.75-4.45 6.78q-5.08 19.8-10.6 39.47a1.01.98 79.6 0 1-.35.52l-10.89 8.49a1.03.99 25.2 0 1-.62.21l-32.17-.08q2.34-3.45 5.78-5.65c3.41-2.17 18.91-1.04 23.75-1.19a1.01.98 24.7 0 0 .57-.2c3.18-2.39 5.98-4.65 7.19-8.69q4.85-16.22 9.94-32.36a1.03 1-11.9 0 1 .34-.5q5.16-3.94 11.51-6.8ZM271.07 19.02q-1.27 7.99-3.69 15.15a1 1 0 0 1-1.64.39l-2.85-2.78a1.02.99-22.5 0 0-.7-.28h-10.18a1 .99-82.4 0 0-.96.74l-9.47 35.27a.99.98-57.4 0 0 .19.88l1.5 1.87a1.01 1.01 0 0 1 .16.97l-.48 1.34a1 .99-79.7 0 1-.95.66l-21.36-.14q6.16-4.13 12.59-6.72a1.01 1.01 0 0 0 .59-.67l10.25-38.84q.64-2.41-1.49-1.11l-9.37 5.75-11.05-.01a1.04.99-64.2 0 0-.66.25c-1.18 1.02-7.86 4.39-5.29.26q1.05.73 1.77-.25 2.84-3.85 6.3-7.23a1.05 1.01-65.7 0 1 .7-.28h36.72q.27 0 .5-.13l8.87-5.09Z"/><path fill="#006939" d="M415.45 26.72q4.02-9.76 3.91-.2a1 1 0 0 0 1.13 1l2.91-.38q3.48-.46.54 1.46l-3.36 2.19a1 .99-16.4 0 0-.45.81q-.07 2.61.5 6.71c.33 2.4-5.11-3.14-5.48-3.41a1.01 1.01 0 0 0-1.14-.04l-2.18 1.41q-2.47 1.59-1.15-1.03l1.16-2.31a.99.98 33.6 0 0-.25-1.21l-3.32-2.8q-2.2-1.85.68-1.76l5.55.18a.99.99 0 0 0 .95-.62Z"/><path fill="#ff5f10" d="m308.21 31.5-14.92.06a1 .99-82.4 0 0-.96.74l-2.54 9.45-3.75 14-4.6 16.76a1.01 1-81.7 0 1-.98.74l-17.82-.18q5.25-4.14 11.41-6.78a.99.98-4.4 0 0 .57-.66l10.91-40.64a1.01 1 7.5 0 1 .97-.74h26.3q2.34 0 .72 1.69l-5.31 5.56ZM367.25 31.54l-15.04.12a.99.98 7.1 0 0-.96.74L344 59.46l-4.46 3.79a1.01 1.01 0 0 1-1.24.05c-2.8-2.04-3.11-4.12-2.16-7.51q3.43-12.3 6.78-24.6c.97-3.55 4.73-6.87 8.46-6.92q10.05-.13 20.09.08 2.18.05.73 1.67l-4.95 5.52Z"/><path fill="#ffa616" d="M220.64 73.09c-3.1-.11 2.94-5.67 3.24-6.76q4.89-17.36 9.33-34.83l9.37-5.75q2.13-1.3 1.49 1.11L233.82 65.7a1.01 1.01 0 0 1-.59.67q-6.43 2.59-12.59 6.72ZM436.85 25.31q-5.31 10.42-12.06 20.02l-.95-11.64a1.01 1-17.8 0 1 .49-.94l12.52-7.44Z"/><path fill="#ff5f10" d="m399.12 25.37 7.58 7.11a1 .98-54.4 0 1 .19 1.2l-6.2 11.59q.36-9.95-1.57-19.9ZM386.69 27.24l-2.28 7.5a.99.99 0 0 1-.95.71l-6.96.01-.05-1.82a1.02.99 75.3 0 1 .51-.9l9.73-5.5ZM327.42 27.72l-4.79 17.97a.96.96 0 0 1-.33.51c-2.7 2.21-9.27 8.32-12.27 9.14q-.21.05-.42.11a.8.79 64.2 0 0-.43 1.25l11.09 14.94q1.18 1.58-.79 1.6l-17.67.12q2.08-3.64 4.94-6.33a.99.99 0 0 0 .13-1.31l-11.6-15.91q-1.19-1.63.84-1.58 5.03.12 10.07-.05c3.92-.12 8.39-4.23 9.25-7.99q.81-3.52 1.98-6.86a.95.95 0 0 1 .36-.48q4.42-3.18 9.64-5.13Z"/><path fill="#04173c" d="m308.21 31.5-2.52 9.51a1.01 1 7.5 0 1-.97.74h-14.93l2.54-9.45a1 .99-82.4 0 1 .96-.74l14.92-.06Z"/><path fill="#ffa616" d="m382.75 40.82-9.14 5.75a.95.92 27.6 0 1-.51.15l-17.13.33 1.74-5.69a1 1 0 0 1 .91-.7q11.78-.52 24.13.16Z"/><path fill="#ff5f10" d="m382.75 40.82-5.87 22.94a1 .94-13.2 0 1-.35.53l-11.24 8.97a1.04.97-62.4 0 1-.62.22l-32.49.14q2.48-3.62 5.97-6.02 1.64-1.12 3.97-1.16 9.7-.16 19.34-.12a1.02.97 26.8 0 0 .56-.17c2.77-1.87 6.37-4.02 7.46-7.36q1.63-4.95 2.93-9.73.52-1.91-1.19-.89L361 54.29l-5.5-.08a1 1 0 0 1-.95-1.24l1.42-5.92 17.13-.33a.95.92 27.6 0 0 .51-.15l9.14-5.75ZM410 54.54l-6.92 6.29q-1.19 1.08-1.34-.52l-1.16-12.46 7.19-4.75a1 1 0 0 1 1.55.77l.68 10.67Z"/><path fill="#04173c" d="M376.27 76.57q-.34-2.4 1.36-2.34a1 1 0 0 1 .86 1.44l-1.75 3.55a.8.8 0 0 1-1.04.38q-1.17-.53.33-2.22a1 .99-28.7 0 0 .24-.81ZM382.54 75.71q.12-.23.22-.49a1.06 1.05-2.4 0 1 .52-.56c2.52-1.16.17 3.59-.13 4.28a1.02 1.02 0 0 1-.9.61l-3 .05a1 1 0 0 1-.91-1.45l1.58-3.15a.8.8 0 0 1 1.01-.39q.58.23.65.9.16 1.63.96.2ZM260.79 265.5q-.57.81-.14 1.5a1.01 1 67.4 0 1-.61 1.5q-8.34 2.03-16.63-.17a.99.94 79.4 0 1-.57-.41q-.58-.86-.63-1.92l1.83-7.04a1.01 1 29.3 0 0-.28-.98l-2.68-2.52a1.01 1 21.2 0 1-.32-.71c-.17-8.03-.52-17.01-7.08-22.67a1.01.99 25.3 0 1-.34-.92q1.04-6.24-.53-12.31-1.18-4.54-2.21-9.07-.52-2.29-1.5-.16-5.58 12.03-17.89 17.15-2.17.9-.01 1.84 15.27 6.64 24.91 20.24a1 .99 56.2 0 1-.28 1.42q-6.19 3.93-13.6 3.16a1 .99 90 0 1-.89-.9c-.36-3.98-1-9.68-5.81-10.28a1.01.97 70.5 0 1-.6-.3q-8.44-8.76-20.5-10.93a1 .99-89.7 0 1-.81-.83l-.3-1.94a1.02 1 87.1 0 0-.93-.85q-7.09-.44-14.08-1.59-8.15-1.34.1-1.59 6.49-.2 12.94-.75 2.52-.21 4.38-1.5 11.78-8.19 11.35-23.64a1 1 0 0 0-.61-.89q-10.18-4.35-14.06-14.67a.97.97 0 0 0-.78-.63q-13.95-2.14-28.06-2.19-.55 0-.43-.39a.32.32 0 0 1 .26-.22q13.07-2.12 26.3-2.57a1 1 0 0 0 .97-.96l.34-8.18a.99.99 0 0 0-.65-.97q-6.58-2.47-12.11-2.17c-17.3.92-42.29 15.96-58.14 5.01q-5.42-3.74-7.85-10.28-.92-2.47 1.41-1.23 14.4 7.69 30.9 5.07 2.48-.4-.27-.66-.29-.03-.59 0-9.62.9-18.62-2.49c-.35-.13-.77-.64-.43-1a.44.4 20.8 0 1 .3-.12c7.11.03 12.4-2.12 20.78-4.29q16.66-4.31 31.81 1.68c7.17 2.84 11.17 3.98 17.93 1.67a1.01.97 8 0 0 .47-.34q3.92-5.09 9.38-8.41 1.88-1.16-.3-1.48-4.36-.64-8.95-1.22-.63-.08-.3-.46a.25.23-69.2 0 1 .14-.07l14.81-1.56a.28.02-6.3 0 0 .27-.05q0-.05-.02-.1a.07.05 2.5 0 0-.05-.04q-10.85-1.43-21.76-1.81-7.88-.27-.11-1.59 26.72-4.51 53.57-.83 11.65 1.6.44-1.94-.4-.13-.81-.24-3.26-.96.14-1.01l9.78-.14a.99.99 0 0 0 .98-1.01q-.08-5.81 2.03-11.21.73-1.85 2.52-3.07 9.88-6.74 20.74-11.86 3.65-1.73-.39-1.52-3.15.16-6.51.14c-.96 0-1.5.4-2.19.95a1 .98 20.8 0 1-.48.21l-14.76 2.29a1 .99-79.5 0 0-.73.51l-2.4 4.38q-.1.19-.11.39-.75 8.49-6.77 13.57c-5.08 4.3-11.44 7.58-17.8 4.35-13.73-6.97-5.16-30.93 9.18-32.55q.85-.1-1.04-1.4a.98.97-32.8 0 0-.75-.16q-6.41 1.18-3.26-2.14a1 .98-63.5 0 1 .87-.3q7.53 1.12 13.18 6.1a1.01.99-26.6 0 0 .75.24l3.14-.31q.21-.02.4-.13l12.2-7.08a1.01.98 42.8 0 1 .97-.02l1.82.96a1.03 1.02 51.2 0 0 .73.08c12.98-3.53 19.25-4.72 31.63-2.07a.33.32-81.6 0 0 .39-.3q.03-.3-.17-.46-1.91-1.51-3.88-2.94-1.88-1.36.44-1.45 9.66-.33 17.16 5.72a.81.8-33 0 0 .72.15c1.04-.28-.03-1.54-.52-1.87q-6.25-4.28-10.09-8.98-2.31-2.83 1.31-2.57 8.67.63 16.88 3.4a1.02 1 32.6 0 0 .99-.21l3.54-3.19a1.02 1.01 25.1 0 1 .73-.26q8.31.53 14.4 6.06a1.01 1.01 0 0 1 .32.86l-.73 6.19a1.02 1 22.7 0 0 .38.9q6.86 5.45 14.38 9.96 2.18 1.3-.35 1.48-1.98.14-3.96-.24-5.87-1.11-11.49-3.16a1.03 1.02-49.6 0 0-.85.07q-2.41 1.4-2.52 4.08a.99.99 0 0 1-1.11.95q-2.96-.35-3.51 3.18-.6 3.82-3.53 2.05-1.48-.89-1.2.81.16 1 .17 2.01.01 1.22-.77 2.42-2.16 3.29-4.17 6.68-.9 1.51.86 1.51h16.9q1.78 0 .85-1.52l-1.11-1.82a1 1 0 0 1 .81-1.52q8.57-.33 17.09-.31 2.02 0 .49-1.36-1.43-1.28.49-1.39 12.73-.73 24.67 3.6a1.01 1-67.5 0 0 1.25-.52l1.98-4.28a1 1 0 0 1 1.53-.35q4.86 3.9 8.37 9.09a.94.91 84 0 0 .43.36l9.13 3.92a1.03 1.01-.6 0 1 .49.47c3.88 7.55 13.89 9.83 21.69 11.67 4.04.95 2.26 8.05 1.85 11.04a.97.96-11.6 0 1-.47.71q-1.69 1.03-3.66.7-3.8-.64-1.35.82a1 1 0 0 1 .14 1.62q-1.94 1.66-4.2 2.65c-3.4 1.48-6.41-.21-10.01.37-22.47 3.56-46.85 2.28-68.33-5.64q-.16-.06-.21.06a.22.18 29.3 0 0 .09.24q7.36 4.69 15.66 7.38 1.47.47.23 1.4-6.59 4.89-12.15 10.95a1.02 1.01 56.4 0 0-.2 1.03c1.27 3.35 5.09 12.62 3.97 15.83q-.39 1.13-1.01 2.15a1 1 0 0 0 .52 1.47q8.46 2.92 16.23 7.39a1.01 1-65.8 0 1 .45 1.19l-2.55 7.53a1.03 1.01 85.6 0 1-.49.58c-11.1 5.58-17.72 13.32-25.69 22.44a1.02.98-72.7 0 1-.62.34q-12.28 1.63-24.35 4.52a1.01 1 0 0 1-1.21-1.2q1.59-6.79 6.9-11.37a1.02.98 25.8 0 1 .73-.24l7.97.59a1 1 0 0 0 .99-.6l.89-2.03a.99.99 0 0 1 .77-.59l6.8-1.01a1.01.99 8.8 0 0 .73-.52l3.24-6.13q.9-1.71-1.02-1.46-10.73 1.42-21.38 3.05c-3.44.53-5.41-.33-8.42-1.61a.99.98 32.6 0 0-1.12.24c-3.73 4.03-8.47 6.14-12.11 9.6q-9.63 9.17-18.95 18.64a1 .98 25.3 0 1-.83.29q-8.43-1.02-16.91-.66a.98.96-19.5 0 1-.84-.39l-4.6-6.12q-1.85-2.46-1.8.61.08 5.71 2.38 11.12c2.05 4.81 6.89 8.83 9.72 13.73Zm73.26-169.79q-12.9-8.05-28-10.1-6.51-.88-1.95.99.54.21 1.16.29 14.82 1.86 27.76 9.2c.05.03 3.17.95 1.03-.38Zm2.27-4.76q.05-.92-.56-1.61-2.15-2.44-1.08.63l.4 1.16q1.08 3.13 1.24-.18Zm-31.84 6.78q-.03-1.61 1.28-.66 1.16.85 2.51 1.38.49.19.49-.28a.42.38-68.4 0 0-.1-.27c-1.36-1.52-11.13-6.22-10.14-3.84.17.4 4.47 4.29 4.93 4.4q1.05.24 1.03-.73Zm-16.71.55c-6.36-2.89-13.26-.7-20.36 1.75a1 1 0 0 0-.62 1.26q.2.6.81.96c1.78 1.02 14.23-3.99 15.75-1.6a1 .99-11.4 0 0 .69.45l10.63 1.67a.98.96 32.7 0 0 .68-.14l2.21-1.37a1 1 0 0 0-.05-1.73q-3.62-1.95-7.79-2.31a.82.81-73.9 0 0-.78.44l-.13.25a.81.8-64.3 0 1-1.04.37Zm28.92.66q-.13 1.34.79 2.34a.51.5-41.3 0 0 .71.04c.39-.33.32-.74.18-1.25q-.27-1.03.24-1.98.67-1.27-.72-.92-1.04.26-1.2 1.77Zm-61.42 4.25q3.31-1.29 6.71-2.45a.66.66 0 0 0 .43-.66c-.16-1.98-6.44 2.4-7.08 2.78q-1.48.89-.06.33Zm57.68.51q.62.1 1.22.71a.33.32 52.8 0 0 .4.06l.26-.15a.34.33-36.4 0 0 .08-.51q-2.39-2.6-3.84-2.9-4.74-.97-9.25.48-3.23 1.03.12 1.55 5.36.83 10.06 4.04.56.39 1.03.39.37 0 .7-.11a.65.64-33.7 0 0 .22-1.09l-1.52-1.35q-1.61-1.43.52-1.12Zm15.21 3.55c.28-.54 1.18-.26 1.61.13q2.24 2.07 2.42-.66a1 .99-79.1 0 0-.68-1.01q-2.51-.84-4.28-2.76a1 1 0 0 0-1.52.06q-.86 1.1-.27 2.61a1.03 1.01-41.5 0 1-.06.84l-2.04 3.79a1.01 1.01 0 0 0 .2 1.21l1.69 1.57q1.69 1.58 1.68-.73v-.38a1.01.99-24 0 1 .27-.68l2.15-2.35q.7-.76-.34-.86l-.42-.03a.51.51 0 0 1-.41-.75Zm-87.65 5 1.18-4.92a1 .99-79.8 0 0-.85-1.23c-9.77-1.15-16.47 8.28-13.78 17.31 1.83 6.15 10.29 9.61 14.97 4.12q4.34-5.08 4.18-11.55a1 1 0 0 0-.99-.97l-2.91-.05q-2.44-.04-1.8-2.71Zm36.3 17.94q-1.88-1.88-3.92-3.8a1 .99-40.1 0 1 .14-1.56q9.02-5.95 19.22-9.57.98-.35 5.42.19a.99.98-65.8 0 0 .88-.34l1.06-1.24q1.58-1.86-.79-1.3-.65.15-1.31.2c-2.09.16-4.34-1.24-6.79-1.28q-.24-.01-.45-.12-2.34-1.26-5.48.18-10.57 4.84-20.2 11.07-1.64 1.06.18 1.77 6.48 2.51 12.06 6.67a.42.41-66.2 0 0 .65-.26q.09-.48-.67-.61Zm-47.96.3q-7.17-6.03-4.34-16.42a.23.22 35.9 0 0-.03-.17c-1.07-1.67-2.18 8.27-2.16 8.52q.53 6.91 5.66 9.4 5.78 2.81.87-1.33Zm86.2-11.72q-1.41 2.99-2.99 5.9c-1.92 3.55-5.7 4.8-9.36 5.68q-.16.04-.29.13-.57.35-.98.66-2.94 2.13.55 1.13 4.13-1.18 8.1-2.89c3.12-1.36 4.83-5.06 6.54-7.84a.98.98 0 0 0 .14-.63l-.19-1.88q-.3-2.85-1.52-.26Zm59.09 8.14q-4.64 6.36.66 2.86a1.04 1.03-51.8 0 1 .89-.11l6.35 2.24a.45.15 23.3 0 0 .39.03c.75-.71-6.21-4.87-7-5.31a1.01 1.01 0 0 0-1.29.29Zm-43.99 4.28c-2.06-.11-13.4-.69-14.26.22q-.21.22-.31.48a.81.81 0 0 0 .74 1.09c3.49.04 9.94.7 13.11-.22q.56-.16.96-.35 2.28-1.08-.24-1.22Zm3.09 6.18 9.16-4.53a1 1 0 0 0 .56-.85q.03-.83-.96-.48-16.65 5.87-31.52 15.39a1 1 0 0 0 .03 1.7l2.18 1.29a.99.99 0 0 0 1.09-.04q8.54-6.14 17.62-11.41c.5-.29 1.33-.36 1.55-.79a.65.63-88 0 1 .29-.28Zm-31.53-.33-.77-1.82a1.02 1.01-17.8 0 0-1.15-.59c-1.62.38-7.43 1.21-8.34 2.27q-.46.55-.71 1.24a1 1 0 0 0 .55 1.25L304 144.9a1 .98-48.2 0 0 .9-.06l4.02-2.37q1.62-.96-.08-1.77l-6.63-3.14a1 .98-89.4 0 1-.5-.52Zm98.59 3.55.45-.28q1.39-.86-.15-1.43c-.12-.05-5.92-2.84-5.84-2.09a.5.49 12.3 0 0 .26.4q2.24 1.21 2.36 3.85a1.01 1-78.4 0 0 .55.85l2.56 1.3a.81.78-42.4 0 0 .68.02c.89-.39-1.2-1.17-1.25-1.89a.8.8 0 0 1 .38-.73Zm19.39 6.6q-.34 1.4.19 2.48 1.66 3.36 1.21-.36-.11-.96.06-1.91a.65.64-79.6 0 0-.51-.75q-.79-.14-.95.54Zm-113.36 7.5q-4.7 10.6-9.18 21.23c-.47 1.12.68.3.79.13q6.82-9.9 11.71-21.88a.99.98 27.8 0 0-.38-1.21c-.24-.16-8.76-5.64-8.79-3.88a.67.67 0 0 0 .26.53l5.26 3.87a1.01 1 30.1 0 1 .33 1.21Zm-101.4.66c-8.11 6.78-11.19 16.48-8.32 26.97.58 2.14 1.43 1.42 1.32-.04q-1.45-17.74 12.29-28.63 7.24-5.74-.88-1.33-2.24 1.21-4.41 3.03Zm178.78-1.64c-.72-.31-6.18-3.26-6.3-3.2a.27.26-34.6 0 0-.08.41q3.11 3.48 7.54 5a1.04 1 46 0 0 .56.02q3.31-.81 6.64-1.44c.05-.01.7-.36.17-.4-3.01-.22-5.81.77-8.53-.39Zm-11.77 2.36-5.79 2.78q-2.93 1.41.28 1.89 17 2.54 33.91-.28 7.23-1.2-.06-1.98-6.98-.74-13.72 2.09a1.02 1.01 37.5 0 1-.54.07q-7.73-1.21-12.07-7.19-1.46-2.01-1.45.47v1.24a1.02 1.01 76.8 0 1-.56.91Zm-108.63 2.81c-1.36 3.46-12.28 38.78-6.57 38.25a.8.79 89.2 0 0 .72-.75q1-19.13 6.51-37.45a.48.46 40.5 0 0-.04-.39q-.28-.53-.62.34Zm7.13 9.06q-6.01 14.65-7.42 29.15a1 1 0 0 0 .8 1.08l1.2.23a.99.99 0 0 0 1.19-.95q.35-14.96 4.74-29.27c.08-.27.11-1.77-.51-.24Zm5.88 12.02q-.19.82-.99 1.09a1 1 0 0 0-.56 1.39q.28.58.11 1.2a1 1 0 0 0 .69 1.23l2.15.61a1 .99-54.8 0 0 .85-.15q1.29-.91 2.73-.19a1 1 0 0 0 1.4-.58l.12-.35a1.01 1 10.1 0 0-.92-1.31q-1.82-.07-2.16-1.58a1 1 0 0 0-.62-.71q-.84-.32-1.42-.99-1.02-1.19-1.38.34Zm18.13 11.75-4.76-.06a.42.41-7 0 0-.41.51q.05.17.18.35c1.5 2 12.28 2.5 14.81 2.38a1.02 1.02 0 0 0 .6-.24q2.21-1.9-.7-2.82c-2.62-.82-7.19-2.45-8.18-5.09q-.36-.98-.5-2.02-.33-2.5-1.5-.26-.68 1.3-.8 2.79a.99.95 28 0 0 .24.73l1.79 2.08q1.45 1.68-.77 1.65Zm45.1.94q-1.87 1.36-.66 2.53a1 1 0 0 0 1.52-.16l1.43-2.09a1.03 1-36.5 0 0 .14-.83l-1.79-6.58a.38.21 80 0 0-.22-.27c-.16-.02.03 6-.01 6.65a1.01 1.01 0 0 1-.41.75Zm-59.91-4.63q-.49.85-.8 2.04a1 1 0 0 0 .74 1.23q5.53 1.27 5-.6a1 1 0 0 0-.89-.73q-1.8-.13-2.21-1.7-.62-2.37-1.84-.24Zm-67.95 14.92q-.47 10.92-7.64 18.23-4.91 5.01.83.98 5.98-4.22 7.43-12.61 1.36-7.92-.56-14.78c-.54-1.93-.84.5-.76.87q.84 4 .7 7.31Zm23-2.31q-.17.62-.32 1.25-.44 1.77.05 3.75 1.65 6.62 2.5 13.43a.42.4 7.6 0 0 .27.33q.61.23.65-.65.45-9.27-1.2-18.03-.8-4.24-1.95-.08Zm23.94 7.03 5.77.46a.99.98-86.1 0 0 1.07-.94l.17-3.11a1 .99 5.7 0 0-.86-1.04l-9.82-1.38a.99.99 0 0 0-1.1.71q-1.64 5.65-1.58 11.54a1 1 0 0 1-.98 1.01l-4.72.13a.99.99 0 0 0-.96.85q-.98 6.31 2.77 11.17a1 1 0 0 0 1.53.06l2.58-2.8a.99.98 30.9 0 1 1.06-.26c4.65 1.61 7.06 6.71 9.5 10.63q1.93 3.09 5.97 2.73a1 1 0 0 0 .88-1.23q-.46-1.89.22-3.58.58-1.44 3.02-2.99 5.3-3.34 9.56-8.01a1.01 1 60.4 0 0 .24-.89l-1.38-6.13a1.02 1-3.8 0 0-.91-.78q-8.41-.57-16.67-2.26-3.08-.63-5.88-1.99-4.74-2.32.52-1.9Zm29.18 9.15q.6-2.89-1.47-2.37a1.01.99 79.5 0 0-.75 1.11c.06.38 2.63 8.24 3.42 6.29a.21.19-48.6 0 0 0-.17q-1.51-3.37-1.2-4.86Zm53.41.14q-.21.48-.43.94-2.89 6.13 1.35.85.8-1 1.44-2.14 1.41-2.55-1.11-1.08-.83.48-1.25 1.43Zm-84.38 17.58q4.76 4.3 1.2-1.04l-2.47-3.7a1.01 1 60 0 0-1.27-.35q-.48.24-.55.81-.08.6.45 1.35 1.07 1.51 2.64 2.93Zm56.81 1.3q-1.84 1.54.53 1.12l3.92-.69q2.41-.43-.01-.81-.66-.1-1.35.08a1.07 1.04-42.2 0 1-.57-.02q-1.51-.52-2.52.32Zm-84.43 13.93a.34.34 0 0 0 .49.2l2.3-1.28a.34.34 0 0 0 .09-.52l-4.15-4.77a.34.34 0 0 0-.58.32l1.85 6.05Zm26.61 15.16.46-.13a.8.8 0 0 0 .41-1.26l-2.27-2.89q-3.57-4.56-1.37.8.68 1.63 1.67 3.08a1 .99 64.6 0 0 1.1.4Z"/><path fill="#006939" d="M334.05 95.71c2.14 1.33-.98.41-1.03.38q-12.94-7.34-27.76-9.2-.62-.08-1.16-.29-4.56-1.87 1.95-.99 15.1 2.05 28 10.1ZM336.32 90.95q-.16 3.31-1.24.18l-.4-1.16q-1.07-3.07 1.08-.63.61.69.56 1.61ZM304.48 97.73q.02.97-1.03.73c-.46-.11-4.76-4-4.93-4.4-.99-2.38 8.78 2.32 10.14 3.84a.42.38-68.4 0 1 .1.27q0 .47-.49.28-1.35-.53-2.51-1.38-1.31-.95-1.28.66ZM288.81 97.91l.13-.25a.82.81-73.9 0 1 .78-.44q4.17.36 7.79 2.31a1 1 0 0 1 .05 1.73l-2.21 1.37a.98.96 32.7 0 1-.68.14l-10.63-1.67a1 .99-11.4 0 1-.69-.45c-1.52-2.39-13.97 2.62-15.75 1.6q-.61-.36-.81-.96a1 1 0 0 1 .62-1.26c7.1-2.45 14-4.64 20.36-1.75a.81.8-64.3 0 0 1.04-.37Z"/><path fill="#ff5f10" d="M316.69 98.94q.16-1.51 1.2-1.77 1.39-.35.72.92-.51.95-.24 1.98c.14.51.21.92-.18 1.25a.51.5-41.3 0 1-.71-.04q-.92-1-.79-2.34Z"/><path fill="#006939" d="M255.27 103.19q-1.42.56.06-.33c.64-.38 6.92-4.76 7.08-2.78a.66.66 0 0 1-.43.66q-3.4 1.16-6.71 2.45ZM312.43 104.82l1.52 1.35a.65.64-33.7 0 1-.22 1.09q-.33.11-.7.11-.47 0-1.03-.39-4.7-3.21-10.06-4.04-3.35-.52-.12-1.55 4.51-1.45 9.25-.48 1.45.3 3.84 2.9a.34.33-36.4 0 1-.08.51l-.26.15a.33.32 52.8 0 1-.4-.06q-.6-.61-1.22-.71-2.13-.31-.52 1.12Z"/><path fill="#ff5f10" d="m328.57 108 .42.03q1.04.1.34.86l-2.15 2.35a1.01.99-24 0 0-.27.68v.38q.01 2.31-1.68.73l-1.69-1.57a1.01 1.01 0 0 1-.2-1.21l2.04-3.79a1.03 1.01-41.5 0 0 .06-.84q-.59-1.51.27-2.61a1 1 0 0 1 1.52-.06q1.77 1.92 4.28 2.76a1 .99-79.1 0 1 .68 1.01q-.18 2.73-2.42.66c-.43-.39-1.33-.67-1.61-.13a.51.51 0 0 0 .41.75Z"/><path fill="#fff" d="M240.51 112.25q-.64 2.67 1.8 2.71l2.91.05a1 1 0 0 1 .99.97q.16 6.47-4.18 11.55c-4.68 5.49-13.14 2.03-14.97-4.12-2.69-9.03 4.01-18.46 13.78-17.31a1 .99-79.8 0 1 .85 1.23l-1.18 4.92Zm1.95 5.96q-5.62-1.67-4.66-7.91.27-1.79-1.39-1.07-6.13 2.64-6.71 9.25c-.55 6.34 6.99 12.91 10.95 5.72q1.19-2.15 2.41-4.58a1 1 0 0 0-.6-1.41Z"/><path fill="#006939" d="M276.81 130.19q.76.13.67.61a.42.41-66.2 0 1-.65.26q-5.58-4.16-12.06-6.67-1.82-.71-.18-1.77 9.63-6.23 20.2-11.07 3.14-1.44 5.48-.18.21.11.45.12c2.45.04 4.7 1.44 6.79 1.28q.66-.05 1.31-.2 2.37-.56.79 1.3l-1.06 1.24a.99.98-65.8 0 1-.88.34q-4.44-.54-5.42-.19-10.2 3.62-19.22 9.57a1 .99-40.1 0 0-.14 1.56q2.04 1.92 3.92 3.8Z"/><path fill="#04173c" d="M263.25 113.96q.68-.84-.25-1 2.8-.88.25 1Z"/><path fill="#fff" d="M228.85 130.49q4.91 4.14-.87 1.33-5.13-2.49-5.66-9.4c-.02-.25 1.09-10.19 2.16-8.52a.23.22 35.9 0 1 .03.17q-2.83 10.39 4.34 16.42Z"/><path fill="#006939" d="M315.05 118.77q1.22-2.59 1.52.26l.19 1.88a.98.98 0 0 1-.14.63c-1.71 2.78-3.42 6.48-6.54 7.84q-3.97 1.71-8.1 2.89-3.49 1-.55-1.13.41-.31.98-.66.13-.09.29-.13c3.66-.88 7.44-2.13 9.36-5.68q1.58-2.91 2.99-5.9ZM374.14 126.91a1.01 1.01 0 0 1 1.29-.29c.79.44 7.75 4.6 7 5.31a.45.15 23.3 0 1-.39-.03l-6.35-2.24a1.04 1.03-51.8 0 0-.89.11q-5.3 3.5-.66-2.86ZM330.15 131.19q2.52.14.24 1.22-.4.19-.96.35c-3.17.92-9.62.26-13.11.22a.81.81 0 0 1-.74-1.09q.1-.26.31-.48c.86-.91 12.2-.33 14.26-.22ZM332.95 137.65c-.22.43-1.05.5-1.55.79q-9.08 5.27-17.62 11.41a.99.99 0 0 1-1.09.04l-2.18-1.29a1 1 0 0 1-.03-1.7q14.87-9.52 31.52-15.39.99-.35.96.48a1 1 0 0 1-.56.85l-9.16 4.53a.65.63-88 0 0-.29.28Z"/><path fill="#fff" d="m302.21 137.56 6.63 3.14q1.7.81.08 1.77l-4.02 2.37a1 .98-48.2 0 1-.9.06l-12.71-5.51a1 1 0 0 1-.55-1.25q.25-.69.71-1.24c.91-1.06 6.72-1.89 8.34-2.27a1.02 1.01-17.8 0 1 1.15.59l.77 1.82a1 .98-89.4 0 0 .5.52ZM399.92 141.32c.05.72 2.14 1.5 1.25 1.89a.81.78-42.4 0 1-.68-.02l-2.56-1.3a1.01 1-78.4 0 1-.55-.85q-.12-2.64-2.36-3.85a.5.49 12.3 0 1-.26-.4c-.08-.75 5.72 2.04 5.84 2.09q1.54.57.15 1.43l-.45.28a.8.8 0 0 0-.38.73Z"/><path fill="#006939" d="M419.69 147.19q.16-.68.95-.54a.65.64-79.6 0 1 .51.75q-.17.95-.06 1.91.45 3.72-1.21.36-.53-1.08-.19-2.48ZM306.33 154.69a1.01 1 30.1 0 0-.33-1.21l-5.26-3.87a.67.67 0 0 1-.26-.53c.03-1.76 8.55 3.72 8.79 3.88a.99.98 27.8 0 1 .38 1.21q-4.89 11.98-11.71 21.88c-.11.17-1.26.99-.79-.13q4.48-10.63 9.18-21.23ZM204.93 155.35q2.17-1.82 4.41-3.03 8.12-4.41.88 1.33-13.74 10.89-12.29 28.63c.11 1.46-.74 2.18-1.32.04-2.87-10.49.21-20.19 8.32-26.97ZM383.71 153.71c2.72 1.16 5.52.17 8.53.39.53.04-.12.39-.17.4q-3.33.63-6.64 1.44a1.04 1 46 0 1-.56-.02q-4.43-1.52-7.54-5a.27.26-34.6 0 1 .08-.41c.12-.06 5.58 2.89 6.3 3.2Z"/><path fill="#fff" d="M372.5 155.16v-1.24q-.01-2.48 1.45-.47 4.34 5.98 12.07 7.19a1.02 1.01 37.5 0 0 .54-.07q6.74-2.83 13.72-2.09 7.29.78.06 1.98-16.91 2.82-33.91.28-3.21-.48-.28-1.89l5.79-2.78a1.02 1.01 76.8 0 0 .56-.91Z"/><path fill="#006939" d="M263.31 158.88q.34-.87.62-.34a.48.46 40.5 0 1 .04.39q-5.51 18.32-6.51 37.45a.8.79 89.2 0 1-.72.75c-5.71.53 5.21-34.79 6.57-38.25ZM270.44 167.94c.62-1.53.59-.03.51.24q-4.39 14.31-4.74 29.27a.99.99 0 0 1-1.19.95l-1.2-.23a1 1 0 0 1-.8-1.08q1.41-14.5 7.42-29.15ZM276.32 179.96q.36-1.53 1.38-.34.58.67 1.42.99a1 1 0 0 1 .62.71q.34 1.51 2.16 1.58a1.01 1 10.1 0 1 .92 1.31l-.12.35a1 1 0 0 1-1.4.58q-1.44-.72-2.73.19a1 .99-54.8 0 1-.85.15l-2.15-.61a1 1 0 0 1-.69-1.23q.17-.62-.11-1.2a1 1 0 0 1 .56-1.39q.8-.27.99-1.09ZM295.22 190.06l-1.79-2.08a.99.95 28 0 1-.24-.73q.12-1.49.8-2.79 1.17-2.24 1.5.26.14 1.04.5 2.02c.99 2.64 5.56 4.27 8.18 5.09q2.91.92.7 2.82a1.02 1.02 0 0 1-.6.24c-2.53.12-13.31-.38-14.81-2.38q-.13-.18-.18-.35a.42.41-7 0 1 .41-.51l4.76.06q2.22.03.77-1.65ZM339.96 191.9c.04-.65-.15-6.67.01-6.65a.38.21 80 0 1 .22.27l1.79 6.58a1.03 1-36.5 0 1-.14.83l-1.43 2.09a1 1 0 0 1-1.52.16q-1.21-1.17.66-2.53a1.01 1.01 0 0 0 .41-.75ZM279.64 188.02q1.22-2.13 1.84.24.41 1.57 2.21 1.7a1 1 0 0 1 .89.73q.53 1.87-5 .6a1 1 0 0 1-.74-1.23q.31-1.19.8-2.04ZM211.69 202.94q.14-3.31-.7-7.31c-.08-.37.22-2.8.76-.87q1.92 6.86.56 14.78-1.45 8.39-7.43 12.61-5.74 4.03-.83-.98 7.17-7.31 7.64-18.23ZM234.69 200.63q1.15-4.16 1.95.08 1.65 8.76 1.2 18.03-.04.88-.65.65a.42.4 7.6 0 1-.27-.33q-.85-6.81-2.5-13.43-.49-1.98-.05-3.75.15-.63.32-1.25Z"/><path fill="#fff" d="M258.63 207.66q-5.26-.42-.52 1.9 2.8 1.36 5.88 1.99 8.26 1.69 16.67 2.26a1.02 1-3.8 0 1 .91.78l1.38 6.13a1.01 1 60.4 0 1-.24.89q-4.26 4.67-9.56 8.01-2.44 1.55-3.02 2.99-.68 1.69-.22 3.58a1 1 0 0 1-.88 1.23q-4.04.36-5.97-2.73c-2.44-3.92-4.85-9.02-9.5-10.63a.99.98 30.9 0 0-1.06.26l-2.58 2.8a1 1 0 0 1-1.53-.06q-3.75-4.86-2.77-11.17a.99.99 0 0 1 .96-.85l4.72-.13a1 1 0 0 0 .98-1.01q-.06-5.89 1.58-11.54a.99.99 0 0 1 1.1-.71l9.82 1.38a1 .99 5.7 0 1 .86 1.04l-.17 3.11a.99.98-86.1 0 1-1.07.94l-5.77-.46Z"/><path fill="#006939" d="M287.81 216.81q-.31 1.49 1.2 4.86a.21.19-48.6 0 1 0 .17c-.79 1.95-3.36-5.91-3.42-6.29a1.01.99 79.5 0 1 .75-1.11q2.07-.52 1.47 2.37ZM341.22 216.95q.42-.95 1.25-1.43 2.52-1.47 1.11 1.08-.64 1.14-1.44 2.14-4.24 5.28-1.35-.85.22-.46.43-.94ZM256.84 234.53q-1.57-1.42-2.64-2.93-.53-.75-.45-1.35.07-.57.55-.81a1.01 1 60 0 1 1.27.35l2.47 3.7q3.56 5.34-1.2 1.04ZM313.65 235.83q1.01-.84 2.52-.32a1.07 1.04-42.2 0 0 .57.02q.69-.18 1.35-.08 2.42.38.01.81l-3.92.69q-2.37.42-.53-1.12ZM229.22 249.76l-1.85-6.05a.34.34 0 0 1 .58-.32l4.15 4.77a.34.34 0 0 1-.09.52l-2.3 1.28a.34.34 0 0 1-.49-.2ZM254.73 264.52q-.99-1.45-1.67-3.08-2.2-5.36 1.37-.8l2.27 2.89a.8.8 0 0 1-.41 1.26l-.46.13a1 .99 64.6 0 1-1.1-.4ZM260.79 265.5c26.33-.04 53.07-.1 79.29 2.5a.56.5 69.1 0 1 .33.17q.45.48-.41.6-10.69 1.38-28.08 2.45-46.02 2.85-92.11 1.17-14.01-.51-27.25-1.94-7.25-.79 0-1.59 24.74-2.77 49.65-2.86.05 1.06.63 1.92a.99.94 79.4 0 0 .57.41q8.29 2.2 16.63.17a1.01 1 67.4 0 0 .61-1.5q-.43-.69.14-1.5Z"/></svg>